<?xml version="1.0" encoding="UTF-8"?>
<svg xmlns="http://www.w3.org/2000/svg" xmlns:xlink="http://www.w3.org/1999/xlink" viewBox="0 0 125 55">
  <defs>
    <style>
      .cls-1 {
        fill: url(#linear-gradient-5);
        stroke: url(#linear-gradient-6);
      }

      .cls-1, .cls-2, .cls-3, .cls-4, .cls-5, .cls-6 {
        stroke-miterlimit: 10;
      }

      .cls-1, .cls-3, .cls-4, .cls-5 {
        stroke-width: .99px;
      }

      .cls-2 {
        fill: url(#Pewter_Radial);
      }

      .cls-2, .cls-6 {
        stroke: #000;
        stroke-width: .5px;
      }

      .cls-7 {
        fill: url(#New_Pattern_Swatch_1);
      }

      .cls-7, .cls-8, .cls-9 {
        stroke-width: 0px;
      }

      .cls-10 {
        isolation: isolate;
      }

      .cls-3 {
        fill: url(#linear-gradient-3);
        stroke: url(#linear-gradient-4);
      }

      .cls-8, .cls-4, .cls-6 {
        fill: none;
      }

      .cls-9 {
        fill: url(#linear-gradient-7);
      }

      .cls-11 {
        mix-blend-mode: overlay;
      }

      .cls-4 {
        stroke: url(#linear-gradient-8);
      }

      .cls-5 {
        fill: url(#linear-gradient);
        stroke: url(#linear-gradient-2);
      }
    </style>
    <linearGradient id="linear-gradient" x1="64.38" y1="9.05" x2="64.38" y2="18.98" gradientUnits="userSpaceOnUse">
      <stop offset="0" stop-color="#fff"/>
      <stop offset=".09" stop-color="#c8c3de"/>
      <stop offset=".17" stop-color="#9389bf"/>
      <stop offset=".25" stop-color="#d882ff"/>
      <stop offset=".85" stop-color="#9340bf"/>
      <stop offset=".95" stop-color="#ffc515"/>
      <stop offset=".98" stop-color="#e9ff6a"/>
    </linearGradient>
    <linearGradient id="linear-gradient-2" x1="33.59" y1="14.02" x2="95.17" y2="14.02" gradientUnits="userSpaceOnUse">
      <stop offset=".15" stop-color="#fff" stop-opacity="0"/>
      <stop offset=".35" stop-color="#f4ffa4"/>
      <stop offset=".5" stop-color="#f1ff8a" stop-opacity=".7"/>
      <stop offset=".8" stop-color="#edff6a"/>
      <stop offset="1" stop-color="#e9ff45"/>
    </linearGradient>
    <linearGradient id="linear-gradient-3" y1="20.97" y2="45.8" xlink:href="#linear-gradient"/>
    <linearGradient id="linear-gradient-4" y1="33.38" y2="33.38" xlink:href="#linear-gradient-2"/>
    <linearGradient id="linear-gradient-5" y1="16" y2="36.86" xlink:href="#linear-gradient"/>
    <linearGradient id="linear-gradient-6" x1="53.46" y1="26.43" x2="75.31" y2="26.43" xlink:href="#linear-gradient-2"/>
    <linearGradient id="linear-gradient-7" x1="8070.84" y1="-8190.76" x2="8070.84" y2="-8138.51" gradientTransform="translate(-8042.67 -8138.51) scale(1 -1)" gradientUnits="userSpaceOnUse">
      <stop offset="0" stop-color="#9ccde9"/>
      <stop offset=".43" stop-color="#fff"/>
      <stop offset=".52" stop-color="#fbfdf8"/>
      <stop offset=".63" stop-color="#f0f7e7"/>
      <stop offset=".77" stop-color="#dfeecb"/>
      <stop offset=".91" stop-color="#c6e1a3"/>
      <stop offset=".99" stop-color="#b7d98a"/>
    </linearGradient>
    <pattern id="New_Pattern_Swatch_1" data-name="New Pattern Swatch 1" x="0" y="0" width="56.33" height="52.24" patternTransform="translate(-498 -1.5)" patternUnits="userSpaceOnUse" viewBox="0 0 56.33 52.24">
      <g>
        <rect class="cls-8" x="0" width="56.33" height="52.24"/>
        <rect class="cls-9" x="0" width="56.33" height="52.24"/>
      </g>
    </pattern>
    <linearGradient id="linear-gradient-8" x1="64.38" y1="46.29" x2="64.38" y2="8.55" gradientUnits="userSpaceOnUse">
      <stop offset=".15" stop-color="#fff" stop-opacity="0"/>
      <stop offset=".35" stop-color="#dadb98"/>
      <stop offset=".5" stop-color="#d0dbcc" stop-opacity=".7"/>
      <stop offset=".67" stop-color="#c6e67c" stop-opacity=".93"/>
      <stop offset="1" stop-color="#9fcf70"/>
    </linearGradient>
    <radialGradient id="Pewter_Radial" data-name="Pewter Radial" cx="64.38" cy="28.07" fx="64.38" fy="28.07" r="29.25" gradientUnits="userSpaceOnUse">
      <stop offset="0" stop-color="#aeb0b7"/>
      <stop offset=".32" stop-color="#a9a9a8"/>
      <stop offset=".35" stop-color="#a9a9a6"/>
      <stop offset=".5" stop-color="#9a9d9e"/>
      <stop offset=".67" stop-color="#838c92"/>
      <stop offset="1" stop-color="#657076"/>
    </radialGradient>
  </defs>
  <g class="cls-10">
    <g id="Layer_1" data-name="Layer 1">
      <g>
        <g>
          <path class="cls-5" d="M88.28,9.05h-47.8c-3.53,0-6.39,2.86-6.39,6.39v3.54h20.38c2.27-3.01,5.86-4.97,9.91-4.97s7.65,1.96,9.91,4.97h20.38v-3.54c0-3.53-2.86-6.39-6.39-6.39ZM43.03,16h-3.97v-3.97h3.97v3.97ZM90.7,16h-7.95v-3.97h7.95v3.97Z"/>
          <path class="cls-3" d="M80.77,45.8h7.51c3.53,0,6.39-2.86,6.39-6.39v-18.44h-19.16c.81,1.65,1.28,3.5,1.28,5.46,0,6.86-5.56,12.41-12.41,12.41s-12.41-5.56-12.41-12.41c0-1.96.47-3.81,1.28-5.46h-19.16v18.44c0,3.53,2.86,6.39,6.39,6.39h40.28Z"/>
          <path class="cls-1" d="M64.38,36.86c5.76,0,10.43-4.67,10.43-10.43s-4.67-10.43-10.43-10.43-10.43,4.67-10.43,10.43,4.67,10.43,10.43,10.43ZM64.38,18.98c4.11,0,7.45,3.33,7.45,7.45s-3.33,7.45-7.45,7.45-7.45-3.33-7.45-7.45,3.33-7.45,7.45-7.45Z"/>
        </g>
        <g>
          <path class="cls-7" d="M88.28,9.05h-47.8c-3.53,0-6.39,2.86-6.39,6.39v3.54h20.38c2.27-3.01,5.86-4.97,9.91-4.97s7.65,1.96,9.91,4.97h20.38v-3.54c0-3.53-2.86-6.39-6.39-6.39ZM43.03,16h-3.97v-3.97h3.97v3.97ZM90.7,16h-7.95v-3.97h7.95v3.97Z"/>
          <path class="cls-7" d="M80.77,45.8h7.51c3.53,0,6.39-2.86,6.39-6.39v-18.44h-19.16c.81,1.65,1.28,3.5,1.28,5.46,0,6.86-5.56,12.41-12.41,12.41s-12.41-5.56-12.41-12.41c0-1.96.47-3.81,1.28-5.46h-19.16v18.44c0,3.53,2.86,6.39,6.39,6.39h40.28Z"/>
          <path class="cls-7" d="M64.38,36.86c5.76,0,10.43-4.67,10.43-10.43s-4.67-10.43-10.43-10.43-10.43,4.67-10.43,10.43,4.67,10.43,10.43,10.43ZM64.38,18.98c4.11,0,7.45,3.33,7.45,7.45s-3.33,7.45-7.45,7.45-7.45-3.33-7.45-7.45,3.33-7.45,7.45-7.45Z"/>
        </g>
        <g class="cls-11">
          <path class="cls-4" d="M88.28,9.05h-47.8c-3.53,0-6.39,2.86-6.39,6.39v3.54h20.38c2.27-3.01,5.86-4.97,9.91-4.97s7.65,1.96,9.91,4.97h20.38v-3.54c0-3.53-2.86-6.39-6.39-6.39ZM43.03,16h-3.97v-3.97h3.97v3.97ZM90.7,16h-7.95v-3.97h7.95v3.97Z"/>
          <path class="cls-4" d="M80.77,45.8h7.51c3.53,0,6.39-2.86,6.39-6.39v-18.44h-19.16c.81,1.65,1.28,3.5,1.28,5.46,0,6.86-5.56,12.41-12.41,12.41s-12.41-5.56-12.41-12.41c0-1.96.47-3.81,1.28-5.46h-19.16v18.44c0,3.53,2.86,6.39,6.39,6.39h40.28Z"/>
          <path class="cls-4" d="M64.38,36.86c5.76,0,10.43-4.67,10.43-10.43s-4.67-10.43-10.43-10.43-10.43,4.67-10.43,10.43,4.67,10.43,10.43,10.43ZM64.38,18.98c4.11,0,7.45,3.33,7.45,7.45s-3.33,7.45-7.45,7.45-7.45-3.33-7.45-7.45,3.33-7.45,7.45-7.45Z"/>
        </g>
        <g>
          <path class="cls-6" d="M88.28,9.05h-47.8c-3.53,0-6.39,2.86-6.39,6.39v3.54h20.38c2.27-3.01,5.86-4.97,9.91-4.97s7.65,1.96,9.91,4.97h20.38v-3.54c0-3.53-2.86-6.39-6.39-6.39ZM43.03,16h-3.97v-3.97h3.97v3.97ZM90.7,16h-7.95v-3.97h7.95v3.97Z"/>
          <path class="cls-6" d="M80.77,45.8h7.51c3.53,0,6.39-2.86,6.39-6.39v-18.44h-19.16c.81,1.65,1.28,3.5,1.28,5.46,0,6.86-5.56,12.41-12.41,12.41s-12.41-5.56-12.41-12.41c0-1.96.47-3.81,1.28-5.46h-19.16v18.44c0,3.53,2.86,6.39,6.39,6.39h40.28Z"/>
          <path class="cls-6" d="M64.38,36.86c5.76,0,10.43-4.67,10.43-10.43s-4.67-10.43-10.43-10.43-10.43,4.67-10.43,10.43,4.67,10.43,10.43,10.43ZM64.38,18.98c4.11,0,7.45,3.33,7.45,7.45s-3.33,7.45-7.45,7.45-7.45-3.33-7.45-7.45,3.33-7.45,7.45-7.45Z"/>
        </g>
      </g>
      <polygon class="cls-2" points="96.52 5.17 94.03 2.03 64.38 25.52 34.73 2.03 32.25 5.17 61.16 28.07 32.25 50.97 34.73 54.11 64.38 30.62 94.03 54.11 96.52 50.97 67.6 28.07 96.52 5.17"/>
    </g>
  </g>
</svg>