<?xml version="1.0" encoding="UTF-8"?>
<svg id="Layer_1" data-name="Layer 1" xmlns="http://www.w3.org/2000/svg" xmlns:xlink="http://www.w3.org/1999/xlink" viewBox="0 0 243.62 243.62">
  <defs>
    <style>
      .cls-1 {
        fill: url(#linear-gradient);
      }

      .cls-1, .cls-2, .cls-3 {
        stroke-width: 0px;
      }

      .cls-4 {
        fill: #677c7c;
        font-family: CascadiaCodeRoman-Bold, 'Cascadia Code';
        font-size: 14.84px;
        font-variation-settings: 'wght' 700;
        font-weight: 700;
      }

      .cls-3 {
        fill: url(#linear-gradient-2);
      }
    </style>
    <linearGradient id="linear-gradient" x1="122" y1="-.81" x2="122" y2="30.27" gradientUnits="userSpaceOnUse">
      <stop offset="0" stop-color="#bcd5df"/>
      <stop offset=".83" stop-color="#f1fafe"/>
    </linearGradient>
    <linearGradient id="linear-gradient-2" x1="122" y1="30" x2="122" y2="244" gradientUnits="userSpaceOnUse">
      <stop offset="0" stop-color="#c2c7d8"/>
      <stop offset=".08" stop-color="#fff"/>
    </linearGradient>
  </defs>
  <path class="cls-1" d="M0-.81h244c-.05,15.92-.05,23.87,0,31.08H0"/>
  <rect class="cls-3" y="30" width="244" height="214"/>
  <g>
    <path class="cls-2" d="M17.72,51.27c-.29,0-.56-.07-.8-.21-.24-.14-.43-.33-.57-.57s-.21-.51-.21-.8.07-.56.21-.8.33-.43.57-.57c.24-.14.51-.21.8-.21s.56.07.8.21c.24.14.43.33.57.57s.21.51.21.8-.07.56-.21.8-.33.43-.57.57c-.24.14-.51.21-.8.21Z"/>
    <path class="cls-2" d="M32.74,53.49l2.2-7.63h1.56l2.2,7.63h-1.13l-1.8-6.7h-.1l-1.8,6.7h-1.13ZM33.75,51.64v-1.02h3.87v1.02h-3.87Z"/>
    <path class="cls-2" d="M41.73,53.6c-.74,0-1.31-.25-1.69-.74s-.58-1.21-.58-2.16.19-1.74.58-2.25.95-.76,1.69-.76c.43,0,.77.1,1.04.3s.42.48.47.84h.44l-.33,1.62c0-.59-.12-1.03-.35-1.34-.23-.3-.57-.46-1.02-.46s-.81.17-1.04.52-.35.85-.35,1.53c0,.64.12,1.12.35,1.44s.58.49,1.04.49.79-.15,1.02-.46c.23-.3.35-.75.35-1.34l.39,1.62h-.49c-.04.36-.19.64-.45.84s-.62.3-1.06.3ZM43.46,53.55l-.12-1.12v-6.99h1.14v8.06l-1.02.05Z"/>
    <path class="cls-2" d="M48.17,53.6c-.74,0-1.31-.25-1.69-.74s-.58-1.21-.58-2.16.19-1.74.58-2.25.95-.76,1.69-.76c.43,0,.77.1,1.04.3s.42.48.47.84h.44l-.33,1.62c0-.59-.12-1.03-.35-1.34-.23-.3-.57-.46-1.02-.46s-.81.17-1.04.52-.35.85-.35,1.53c0,.64.12,1.12.35,1.44s.58.49,1.04.49.79-.15,1.02-.46c.23-.3.35-.75.35-1.34l.39,1.62h-.49c-.04.36-.19.64-.45.84s-.62.3-1.06.3ZM49.91,53.55l-.12-1.12v-6.99h1.14v8.06l-1.02.05Z"/>
    <path class="cls-2" d="M60.66,53.6c-.59,0-1.05-.14-1.38-.43-.33-.29-.49-.69-.49-1.21,0-.6.22-1.06.67-1.39s1.08-.48,1.9-.48c.34,0,.64.02.91.06.27.04.5.1.71.19l-.24.77c-.24-.05-.47-.08-.7-.09-.23,0-.46-.01-.7-.01-.99,0-1.48.3-1.48.9,0,.25.08.44.25.58s.41.2.72.2c.35,0,.65-.06.89-.18s.42-.28.53-.47c.12-.19.18-.38.18-.59v-.62l.33,1.46h-.45l.18-.17c0,.33-.08.6-.23.82-.15.22-.37.39-.64.49-.28.11-.6.16-.98.16ZM62.67,53.55l-.08-1.69-.15-.47v-1.47c0-.38-.13-.66-.4-.83-.27-.18-.66-.27-1.19-.29l-1.36-.04.11-1.01,1.15.02c.94.01,1.64.22,2.1.61.46.39.68.96.68,1.72v2.37l.97.12v.91l-1.83.05Z"/>
    <path class="cls-2" d="M73.95,53.6c-.43,0-.8-.01-1.1-.04-.31-.02-.59-.07-.84-.12l.13-1.03c.38.06.71.1,1,.13s.56.04.82.04c.58,0,.99-.06,1.25-.17.26-.11.39-.29.39-.54,0-.17-.05-.3-.14-.38-.09-.08-.23-.15-.42-.2l-1.31-.33c-.56-.14-.97-.32-1.24-.53-.26-.21-.39-.53-.39-.96,0-.62.24-1.07.72-1.35.48-.28,1.25-.42,2.31-.42.28,0,.53,0,.77.02.24.02.48.04.73.08l-.12.99c-.29-.03-.55-.05-.77-.06-.22-.01-.44-.02-.65-.02-.64,0-1.1.05-1.39.16-.29.11-.43.29-.43.53,0,.16.06.28.18.36.12.07.3.14.54.2l1.05.26c.6.14,1.04.33,1.31.57s.42.59.42,1.05c0,.61-.22,1.06-.67,1.33-.45.28-1.17.42-2.15.42Z"/>
    <path class="cls-2" d="M77.99,48.8v-1h5.16v1h-5.16ZM79.42,50.81v-4.73h1.14v4.73h-1.14ZM81.86,53.6c-.86,0-1.49-.18-1.87-.54s-.58-.93-.58-1.72v-.97h1.14v.91c0,.45.11.78.33.98.22.2.58.31,1.09.31.18,0,.37,0,.57-.03.2-.02.43-.05.69-.08l.13,1c-.25.04-.5.08-.73.1s-.49.03-.76.03Z"/>
    <path class="cls-2" d="M84.92,53.49v-1h2.28v1h-2.28ZM85.24,48.8v-1h2.99v1h-2.99ZM87.62,46.9c-.22,0-.41-.08-.56-.23s-.23-.34-.23-.56.08-.41.23-.56c.16-.15.34-.23.56-.23s.41.08.56.23.23.34.23.56-.08.41-.23.56c-.15.16-.34.23-.56.23ZM87.08,53.49v-5.37h1.14v5.37h-1.14ZM88.12,53.49v-1h1.86v1h-1.86Z"/>
    <path class="cls-2" d="M94.27,53.6c-.97,0-1.72-.25-2.25-.77-.53-.51-.79-1.24-.79-2.2s.25-1.65.75-2.17c.5-.52,1.21-.77,2.14-.77.55,0,1.03.1,1.43.31.4.21.68.5.85.87l-.88.66c-.16-.26-.37-.46-.62-.61-.25-.14-.52-.21-.82-.21-.54,0-.95.16-1.25.49-.3.32-.45.78-.45,1.38,0,.65.17,1.14.52,1.49.35.34.85.51,1.5.51.26,0,.53-.01.79-.04s.52-.06.77-.1l.13,1c-.29.06-.6.11-.91.13s-.62.03-.92.03Z"/>
    <path class="cls-2" d="M97.81,53.49v-8.06h1.14v8.06h-1.14ZM98.61,51.33v-1.02h.64c.47,0,.86-.08,1.17-.24.3-.16.54-.43.72-.8s.3-.86.38-1.47h1.18c-.15,1.19-.49,2.07-1.01,2.66-.52.58-1.25.88-2.17.88h-.91ZM101.66,53.49l-1.62-2.77,1.07-.44,1.96,3.21h-1.41Z"/>
    <path class="cls-2" d="M107.11,53.6c-.97,0-1.72-.25-2.25-.77-.53-.51-.79-1.24-.79-2.2s.22-1.65.67-2.17c.45-.52,1.08-.77,1.9-.77.77,0,1.37.23,1.79.7s.63,1.14.63,2.03c0,.26-.01.5-.03.73h-4v-.87h3c0-.51-.12-.91-.37-1.18-.24-.27-.58-.41-1.01-.41-.48,0-.86.16-1.12.49s-.4.79-.4,1.4c0,.66.18,1.16.55,1.5s.89.52,1.57.52c.24,0,.47-.01.7-.04.23-.03.46-.06.7-.11l.14,1c-.34.06-.64.11-.92.12s-.53.03-.74.03Z"/>
    <path class="cls-2" d="M110.27,53.49v-1h3.8v1h-3.8ZM110.48,48.8v-1h1.9l.11,1h-2.01ZM111.53,53.49v-5.69h.92l.21,1.63v4.06h-1.14ZM112.67,51.04l-.33-1.78h.44c.06-1.05.59-1.57,1.57-1.57.59,0,1.01.17,1.28.5s.4.88.4,1.63h-1.13c0-.42-.06-.71-.19-.9-.12-.18-.32-.27-.6-.27-.48,0-.84.21-1.08.62-.24.41-.36,1-.36,1.76Z"/>
    <path class="cls-2" d="M123.09,50.06v-1h5.26v1h-5.26ZM124.89,53.49v-5.21c0-1.97.9-2.95,2.7-2.95.41,0,.8.04,1.18.11l-.12.99c-.23-.03-.42-.05-.6-.06s-.34-.02-.5-.02c-1.02,0-1.53.63-1.53,1.88v5.26h-1.14Z"/>
    <path class="cls-2" d="M129.6,53.49v-1h3.8v1h-3.8ZM129.82,48.8v-1h1.9l.11,1h-2.01ZM130.87,53.49v-5.69h.92l.21,1.63v4.06h-1.14ZM132.01,51.04l-.33-1.78h.44c.06-1.05.59-1.57,1.57-1.57.59,0,1.01.17,1.28.5s.4.88.4,1.63h-1.13c0-.42-.06-.71-.19-.9-.12-.18-.32-.27-.6-.27-.48,0-.84.21-1.08.62-.24.41-.36,1-.36,1.76Z"/>
    <path class="cls-2" d="M138.84,53.6c-.79,0-1.4-.26-1.84-.77s-.66-1.24-.66-2.18.22-1.67.66-2.18c.44-.51,1.05-.77,1.84-.77s1.4.26,1.84.77c.43.51.65,1.24.65,2.18s-.22,1.67-.65,2.18c-.44.52-1.05.77-1.84.77ZM138.84,52.58c.42,0,.74-.17.97-.5s.34-.81.34-1.43-.11-1.1-.34-1.43c-.23-.33-.55-.5-.97-.5s-.74.17-.97.5c-.23.33-.34.81-.34,1.43s.11,1.09.34,1.43.55.5.97.5Z"/>
    <path class="cls-2" d="M142.67,53.49v-5.69h1.01l.13,1.2v4.49h-1.14ZM144.8,53.49v-4.46c0-.32-.15-.48-.45-.48-.37,0-.55.26-.55.77l-.33-.82h.37c.04-.54.37-.82.98-.82.3,0,.53.1.7.31s.25.51.25.93v4.57h-.97ZM146.77,53.49v-4.35c0-.39-.15-.59-.44-.59-.37,0-.56.26-.56.77l-.39-.82h.44c.02-.22.11-.41.27-.57s.39-.24.69-.24c.39,0,.68.11.86.32s.27.55.27,1.03v4.46h-1.14Z"/>
    <path class="cls-2" d="M155.33,48.8v-1h5.16v1h-5.16ZM156.76,50.81v-4.73h1.14v4.73h-1.14ZM159.21,53.6c-.86,0-1.49-.18-1.87-.54s-.58-.93-.58-1.72v-.97h1.14v.91c0,.45.11.78.33.98.22.2.58.31,1.09.31.18,0,.37,0,.57-.03.2-.02.43-.05.69-.08l.13,1c-.25.04-.5.08-.73.1s-.49.03-.76.03Z"/>
    <path class="cls-2" d="M162.3,53.49v-8.06h1.14v8.06h-1.14ZM165.8,53.49v-3.71c0-.36-.09-.64-.27-.83-.18-.2-.43-.29-.75-.29-.9,0-1.34.54-1.34,1.63l-.33-1.46h.44c.03-.38.17-.67.42-.86.25-.19.61-.28,1.08-.28.6,0,1.07.18,1.4.55s.49.88.49,1.55v3.71h-1.14Z"/>
    <path class="cls-2" d="M171.56,53.6c-.97,0-1.72-.25-2.25-.77-.53-.51-.79-1.24-.79-2.2s.22-1.65.67-2.17c.45-.52,1.08-.77,1.9-.77.77,0,1.37.23,1.79.7s.63,1.14.63,2.03c0,.26-.01.5-.03.73h-4v-.87h3c0-.51-.12-.91-.37-1.18-.24-.27-.58-.41-1.01-.41-.48,0-.86.16-1.12.49s-.4.79-.4,1.4c0,.66.18,1.16.55,1.5s.89.52,1.57.52c.24,0,.47-.01.7-.04.23-.03.46-.06.7-.11l.14,1c-.34.06-.64.11-.92.12s-.53.03-.74.03Z"/>
    <path class="cls-2" d="M181.26,46.44v-1h1.77v1h-1.77ZM184.81,53.6c-.66,0-1.13-.18-1.43-.54s-.44-.93-.44-1.72v-5.91h1.14v5.85c0,.3.03.55.09.74s.17.33.34.42c.17.09.41.13.74.13.3,0,.68-.07,1.14-.2l.13,1c-.29.08-.57.14-.83.17s-.55.05-.86.05Z"/>
    <path class="cls-2" d="M190.9,53.6c-.97,0-1.72-.25-2.25-.77-.53-.51-.79-1.24-.79-2.2s.22-1.65.67-2.17c.45-.52,1.08-.77,1.9-.77.77,0,1.37.23,1.79.7s.63,1.14.63,2.03c0,.26-.01.5-.03.73h-4v-.87h3c0-.51-.12-.91-.37-1.18-.24-.27-.58-.41-1.01-.41-.48,0-.86.16-1.12.49s-.4.79-.4,1.4c0,.66.18,1.16.55,1.5s.89.52,1.57.52c.24,0,.47-.01.7-.04.23-.03.46-.06.7-.11l.14,1c-.34.06-.64.11-.92.12s-.53.03-.74.03Z"/>
    <path class="cls-2" d="M193.99,50.06v-1h5.26v1h-5.26ZM195.79,53.49v-5.21c0-1.97.9-2.95,2.7-2.95.41,0,.8.04,1.18.11l-.12.99c-.23-.03-.42-.05-.6-.06s-.34-.02-.5-.02c-1.02,0-1.53.63-1.53,1.88v5.26h-1.14Z"/>
    <path class="cls-2" d="M200.45,48.8v-1h5.16v1h-5.16ZM201.88,50.81v-4.73h1.14v4.73h-1.14ZM204.33,53.6c-.86,0-1.49-.18-1.87-.54s-.58-.93-.58-1.72v-.97h1.14v.91c0,.45.11.78.33.98.22.2.58.31,1.09.31.18,0,.37,0,.57-.03.2-.02.43-.05.69-.08l.13,1c-.25.04-.5.08-.73.1s-.49.03-.76.03Z"/>
    <path class="cls-2" d="M35.28,66.8c-.43,0-.8-.01-1.1-.04-.31-.02-.59-.07-.84-.12l.13-1.03c.38.06.71.1,1,.13s.56.04.82.04c.58,0,.99-.06,1.25-.17.26-.11.39-.29.39-.54,0-.17-.05-.3-.14-.38-.09-.08-.23-.15-.42-.2l-1.31-.33c-.56-.14-.97-.32-1.24-.53-.26-.21-.39-.53-.39-.96,0-.62.24-1.07.72-1.35.48-.28,1.25-.42,2.31-.42.28,0,.53,0,.77.02.24.02.48.04.73.08l-.12.99c-.29-.03-.55-.05-.77-.06-.22-.01-.44-.02-.65-.02-.64,0-1.1.05-1.39.16-.29.11-.43.29-.43.53,0,.16.06.28.18.36.12.07.3.14.54.2l1.05.26c.6.14,1.04.33,1.31.57s.42.59.42,1.05c0,.61-.22,1.06-.67,1.33-.45.28-1.17.42-2.15.42Z"/>
    <path class="cls-2" d="M39.8,66.69v-1h2.28v1h-2.28ZM40.12,62v-1h2.99v1h-2.99ZM42.5,60.1c-.22,0-.41-.08-.56-.23s-.23-.34-.23-.56.08-.41.23-.56c.16-.15.34-.23.56-.23s.41.08.56.23.23.34.23.56-.08.41-.23.56c-.15.16-.34.23-.56.23ZM41.97,66.69v-5.37h1.14v5.37h-1.14ZM43,66.69v-1h1.86v1h-1.86Z"/>
    <path class="cls-2" d="M48.17,66.8c-.74,0-1.31-.25-1.69-.74s-.58-1.21-.58-2.16.19-1.74.58-2.25.95-.76,1.69-.76c.43,0,.77.1,1.04.3s.42.48.47.84h.44l-.33,1.62c0-.59-.12-1.03-.35-1.34-.23-.3-.57-.46-1.02-.46s-.81.17-1.04.52-.35.85-.35,1.53c0,.64.12,1.12.35,1.44s.58.49,1.04.49.79-.15,1.02-.46c.23-.3.35-.75.35-1.34l.39,1.62h-.49c-.04.36-.19.64-.45.84s-.62.3-1.06.3ZM49.91,66.75l-.12-1.12v-6.99h1.14v8.06l-1.02.05Z"/>
    <path class="cls-2" d="M55.55,66.8c-.97,0-1.72-.25-2.25-.77-.53-.51-.79-1.24-.79-2.2s.22-1.65.67-2.17c.45-.52,1.08-.77,1.9-.77.77,0,1.37.23,1.79.7s.63,1.14.63,2.03c0,.26-.01.5-.03.73h-4v-.87h3c0-.51-.12-.91-.37-1.18-.24-.27-.58-.41-1.01-.41-.48,0-.86.16-1.12.49s-.4.79-.4,1.4c0,.66.18,1.16.55,1.5s.89.52,1.57.52c.24,0,.47-.01.7-.04.23-.03.46-.06.7-.11l.14,1c-.34.06-.64.11-.92.12s-.53.03-.74.03Z"/>
    <path class="cls-2" d="M59.15,66.69v-8.06h1.14v7.96l-1.14.1ZM60.67,66.8c-.26,0-.51,0-.76-.03-.25-.02-.51-.05-.76-.08l.44-1.04c.19.09.4.14.63.16.23.02.46.02.68.02.68,0,1.21-.21,1.59-.62s.56-.99.56-1.75c0-.52-.11-.91-.34-1.19s-.55-.42-.97-.42c-.97,0-1.45.54-1.45,1.63l-.33-1.46h.44c.05-.76.52-1.14,1.4-1.14.76,0,1.35.22,1.76.67.42.45.62,1.08.62,1.91,0,1.06-.3,1.88-.92,2.46-.61.58-1.47.87-2.59.87Z"/>
    <path class="cls-2" d="M67.1,66.8c-.59,0-1.05-.14-1.38-.43-.33-.29-.49-.69-.49-1.21,0-.6.22-1.06.67-1.39s1.08-.48,1.9-.48c.34,0,.64.02.91.06.27.04.5.1.71.19l-.24.77c-.24-.05-.47-.08-.7-.09-.23,0-.46-.01-.7-.01-.99,0-1.48.3-1.48.9,0,.25.08.44.25.58s.41.2.72.2c.35,0,.65-.06.89-.18s.42-.28.53-.47c.12-.19.18-.38.18-.59v-.62l.33,1.46h-.45l.18-.17c0,.33-.08.6-.23.82-.15.22-.37.39-.64.49-.28.11-.6.16-.98.16ZM69.11,66.75l-.08-1.69-.15-.47v-1.47c0-.38-.13-.66-.4-.83-.27-.18-.66-.27-1.19-.29l-1.36-.04.11-1.01,1.15.02c.94.01,1.64.22,2.1.61.46.39.68.96.68,1.72v2.37l.97.12v.91l-1.83.05Z"/>
    <path class="cls-2" d="M71.59,66.69v-1h3.8v1h-3.8ZM71.81,62v-1h1.9l.11,1h-2.01ZM72.86,66.69v-5.69h.92l.21,1.63v4.06h-1.14ZM74,64.25l-.33-1.78h.44c.06-1.05.59-1.57,1.57-1.57.59,0,1.01.17,1.28.5s.4.88.4,1.63h-1.13c0-.42-.06-.71-.19-.9-.12-.18-.32-.27-.6-.27-.48,0-.84.21-1.08.62-.24.41-.36,1-.36,1.76Z"/>
    <path class="cls-2" d="M80.83,66.8c-.22,0-.41-.08-.56-.23-.16-.16-.23-.34-.23-.56s.08-.41.23-.56c.16-.15.34-.23.56-.23s.41.08.56.23c.15.15.23.34.23.56s-.08.41-.23.56c-.15.16-.34.23-.56.23Z"/>
    <path class="cls-2" d="M94.52,66.8c-2.37,0-3.56-1.31-3.56-3.93,0-1.24.3-2.21.9-2.89.6-.68,1.44-1.02,2.53-1.02.53,0,.98.08,1.38.25.39.17.67.4.85.71l-.79.79c-.16-.24-.37-.43-.61-.56s-.52-.2-.81-.2c-.69,0-1.25.25-1.66.75s-.63,1.21-.63,2.12c0,2,.86,3,2.59,3,.52,0,1.03-.11,1.54-.32l.25.95c-.62.24-1.28.37-1.97.37Z"/>
    <path class="cls-2" d="M97.47,59.64v-1h1.77v1h-1.77ZM101.02,66.8c-.66,0-1.13-.18-1.43-.54s-.44-.93-.44-1.72v-5.91h1.14v5.85c0,.3.03.55.09.74s.17.33.34.42c.17.09.41.13.74.13.3,0,.68-.07,1.14-.2l.13,1c-.29.08-.57.14-.83.17s-.55.05-.86.05Z"/>
    <path class="cls-2" d="M104.25,66.69v-1h2.28v1h-2.28ZM104.57,62v-1h2.99v1h-2.99ZM106.95,60.1c-.22,0-.41-.08-.56-.23s-.23-.34-.23-.56.08-.41.23-.56c.16-.15.34-.23.56-.23s.41.08.56.23.23.34.23.56-.08.41-.23.56c-.15.16-.34.23-.56.23ZM106.42,66.69v-5.37h1.14v5.37h-1.14ZM107.45,66.69v-1h1.86v1h-1.86Z"/>
    <path class="cls-2" d="M113.61,66.8c-.97,0-1.72-.25-2.25-.77-.53-.51-.79-1.24-.79-2.2s.25-1.65.75-2.17c.5-.52,1.21-.77,2.14-.77.55,0,1.03.1,1.43.31.4.21.68.5.85.87l-.88.66c-.16-.26-.37-.46-.62-.61-.25-.14-.52-.21-.82-.21-.54,0-.95.16-1.25.49-.3.32-.45.78-.45,1.38,0,.65.17,1.14.52,1.49.35.34.85.51,1.5.51.26,0,.53-.01.79-.04s.52-.06.77-.1l.13,1c-.29.06-.6.11-.91.13s-.62.03-.92.03Z"/>
    <path class="cls-2" d="M117.14,66.69v-8.06h1.14v8.06h-1.14ZM117.95,64.54v-1.02h.64c.47,0,.86-.08,1.17-.24.3-.16.54-.43.72-.8s.3-.86.38-1.47h1.18c-.15,1.19-.49,2.07-1.01,2.66-.52.58-1.25.88-2.17.88h-.91ZM121,66.69l-1.62-2.77,1.07-.44,1.96,3.21h-1.41Z"/>
    <path class="cls-2" d="M129.55,62v-1h5.16v1h-5.16ZM130.98,64.01v-4.73h1.14v4.73h-1.14ZM133.43,66.8c-.86,0-1.49-.18-1.87-.54s-.58-.93-.58-1.72v-.97h1.14v.91c0,.45.11.78.33.98.22.2.58.31,1.09.31.18,0,.37,0,.57-.03.2-.02.43-.05.69-.08l.13,1c-.25.04-.5.08-.73.1s-.49.03-.76.03Z"/>
    <path class="cls-2" d="M136.52,66.69v-8.06h1.14v8.06h-1.14ZM140.02,66.69v-3.71c0-.36-.09-.64-.27-.83-.18-.2-.43-.29-.75-.29-.9,0-1.34.54-1.34,1.63l-.33-1.46h.44c.03-.38.17-.67.42-.86.25-.19.61-.28,1.08-.28.6,0,1.07.18,1.4.55s.49.88.49,1.55v3.71h-1.14Z"/>
    <path class="cls-2" d="M145.78,66.8c-.97,0-1.72-.25-2.25-.77-.53-.51-.79-1.24-.79-2.2s.22-1.65.67-2.17c.45-.52,1.08-.77,1.9-.77.77,0,1.37.23,1.79.7s.63,1.14.63,2.03c0,.26-.01.5-.03.73h-4v-.87h3c0-.51-.12-.91-.37-1.18-.24-.27-.58-.41-1.01-.41-.48,0-.86.16-1.12.49s-.4.79-.4,1.4c0,.66.18,1.16.55,1.5s.89.52,1.57.52c.24,0,.47-.01.7-.04.23-.03.46-.06.7-.11l.14,1c-.34.06-.64.11-.92.12s-.53.03-.74.03Z"/>
    <path class="cls-2" d="M157.74,66.8c-.43,0-.8-.01-1.1-.04-.31-.02-.59-.07-.84-.12l.13-1.03c.38.06.71.1,1,.13s.56.04.82.04c.58,0,.99-.06,1.25-.17.26-.11.39-.29.39-.54,0-.17-.05-.3-.14-.38-.09-.08-.23-.15-.42-.2l-1.31-.33c-.56-.14-.97-.32-1.24-.53-.26-.21-.39-.53-.39-.96,0-.62.24-1.07.72-1.35.48-.28,1.25-.42,2.31-.42.28,0,.53,0,.77.02.24.02.48.04.73.08l-.12.99c-.29-.03-.55-.05-.77-.06-.22-.01-.44-.02-.65-.02-.64,0-1.1.05-1.39.16-.29.11-.43.29-.43.53,0,.16.06.28.18.36.12.07.3.14.54.2l1.05.26c.6.14,1.04.33,1.31.57s.42.59.42,1.05c0,.61-.22,1.06-.67,1.33-.45.28-1.17.42-2.15.42Z"/>
    <path class="cls-2" d="M161.78,62v-1h5.16v1h-5.16ZM163.2,64.01v-4.73h1.14v4.73h-1.14ZM165.65,66.8c-.86,0-1.49-.18-1.87-.54s-.58-.93-.58-1.72v-.97h1.14v.91c0,.45.11.78.33.98.22.2.58.31,1.09.31.18,0,.37,0,.57-.03.2-.02.43-.05.69-.08l.13,1c-.25.04-.5.08-.73.1s-.49.03-.76.03Z"/>
    <path class="cls-2" d="M168.7,66.69v-1h2.28v1h-2.28ZM169.03,62v-1h2.99v1h-2.99ZM171.41,60.1c-.22,0-.41-.08-.56-.23s-.23-.34-.23-.56.08-.41.23-.56c.16-.15.34-.23.56-.23s.41.08.56.23.23.34.23.56-.08.41-.23.56c-.15.16-.34.23-.56.23ZM170.87,66.69v-5.37h1.14v5.37h-1.14ZM171.91,66.69v-1h1.86v1h-1.86Z"/>
    <path class="cls-2" d="M178.06,66.8c-.97,0-1.72-.25-2.25-.77-.53-.51-.79-1.24-.79-2.2s.25-1.65.75-2.17c.5-.52,1.21-.77,2.14-.77.55,0,1.03.1,1.43.31.4.21.68.5.85.87l-.88.66c-.16-.26-.37-.46-.62-.61-.25-.14-.52-.21-.82-.21-.54,0-.95.16-1.25.49-.3.32-.45.78-.45,1.38,0,.65.17,1.14.52,1.49.35.34.85.51,1.5.51.26,0,.53-.01.79-.04s.52-.06.77-.1l.13,1c-.29.06-.6.11-.91.13s-.62.03-.92.03Z"/>
    <path class="cls-2" d="M181.59,66.69v-8.06h1.14v8.06h-1.14ZM182.4,64.54v-1.02h.64c.47,0,.86-.08,1.17-.24.3-.16.54-.43.72-.8s.3-.86.38-1.47h1.18c-.15,1.19-.49,2.07-1.01,2.66-.52.58-1.25.88-2.17.88h-.91ZM185.45,66.69l-1.62-2.77,1.07-.44,1.96,3.21h-1.41Z"/>
    <path class="cls-2" d="M190.9,66.8c-.97,0-1.72-.25-2.25-.77-.53-.51-.79-1.24-.79-2.2s.22-1.65.67-2.17c.45-.52,1.08-.77,1.9-.77.77,0,1.37.23,1.79.7s.63,1.14.63,2.03c0,.26-.01.5-.03.73h-4v-.87h3c0-.51-.12-.91-.37-1.18-.24-.27-.58-.41-1.01-.41-.48,0-.86.16-1.12.49s-.4.79-.4,1.4c0,.66.18,1.16.55,1.5s.89.52,1.57.52c.24,0,.47-.01.7-.04.23-.03.46-.06.7-.11l.14,1c-.34.06-.64.11-.92.12s-.53.03-.74.03Z"/>
    <path class="cls-2" d="M194.06,66.69v-1h3.8v1h-3.8ZM194.27,62v-1h1.9l.11,1h-2.01ZM195.32,66.69v-5.69h.92l.21,1.63v4.06h-1.14ZM196.46,64.25l-.33-1.78h.44c.06-1.05.59-1.57,1.57-1.57.59,0,1.01.17,1.28.5s.4.88.4,1.63h-1.13c0-.42-.06-.71-.19-.9-.12-.18-.32-.27-.6-.27-.48,0-.84.21-1.08.62-.24.41-.36,1-.36,1.76Z"/>
    <path class="cls-2" d="M209.3,66.8c-.43,0-.8-.01-1.1-.04-.31-.02-.59-.07-.84-.12l.13-1.03c.38.06.71.1,1,.13s.56.04.82.04c.58,0,.99-.06,1.25-.17.26-.11.39-.29.39-.54,0-.17-.05-.3-.14-.38-.09-.08-.23-.15-.42-.2l-1.31-.33c-.56-.14-.97-.32-1.24-.53-.26-.21-.39-.53-.39-.96,0-.62.24-1.07.72-1.35.48-.28,1.25-.42,2.31-.42.28,0,.53,0,.77.02.24.02.48.04.73.08l-.12.99c-.29-.03-.55-.05-.77-.06-.22-.01-.44-.02-.65-.02-.64,0-1.1.05-1.39.16-.29.11-.43.29-.43.53,0,.16.06.28.18.36.12.07.3.14.54.2l1.05.26c.6.14,1.04.33,1.31.57s.42.59.42,1.05c0,.61-.22,1.06-.67,1.33-.45.28-1.17.42-2.15.42Z"/>
    <path class="cls-2" d="M216.18,66.8c-.79,0-1.4-.26-1.84-.77s-.66-1.24-.66-2.18.22-1.67.66-2.18c.44-.51,1.05-.77,1.84-.77s1.4.26,1.84.77c.43.51.65,1.24.65,2.18s-.22,1.67-.65,2.18c-.44.52-1.05.77-1.84.77ZM216.18,65.78c.42,0,.74-.17.97-.5s.34-.81.34-1.43-.11-1.1-.34-1.43c-.23-.33-.55-.5-.97-.5s-.74.17-.97.5c-.23.33-.34.81-.34,1.43s.11,1.09.34,1.43.55.5.97.5Z"/>
    <path class="cls-2" d="M36.26,80c-.97,0-1.72-.25-2.25-.77-.53-.51-.79-1.24-.79-2.2s.25-1.65.75-2.17c.5-.52,1.21-.77,2.14-.77.55,0,1.03.1,1.43.31.4.21.68.5.85.87l-.88.66c-.16-.26-.37-.46-.62-.61-.25-.14-.52-.21-.82-.21-.54,0-.95.16-1.25.49-.3.32-.45.78-.45,1.38,0,.65.17,1.14.52,1.49.35.34.85.51,1.5.51.26,0,.53-.01.79-.04s.52-.06.77-.1l.13,1c-.29.06-.6.11-.91.13s-.62.03-.92.03Z"/>
    <path class="cls-2" d="M42.16,80c-.79,0-1.4-.26-1.84-.77s-.66-1.24-.66-2.18.22-1.67.66-2.18c.44-.51,1.05-.77,1.84-.77s1.4.26,1.84.77c.43.51.65,1.24.65,2.18s-.22,1.67-.65,2.18c-.44.52-1.05.77-1.84.77ZM42.16,78.98c.42,0,.74-.17.97-.5s.34-.81.34-1.43-.11-1.1-.34-1.43c-.23-.33-.55-.5-.97-.5s-.74.17-.97.5c-.23.33-.34.81-.34,1.43s.11,1.09.34,1.43.55.5.97.5Z"/>
    <path class="cls-2" d="M46.29,79.89v-5.69h1.03l.11,1.2v4.49h-1.14ZM49.79,79.89v-3.71c0-.34-.09-.61-.27-.79s-.43-.28-.75-.28c-.9,0-1.34.53-1.34,1.58l-.33-1.46h.44c.03-.38.17-.67.42-.86.25-.19.61-.28,1.08-.28.6,0,1.07.18,1.4.55s.49.88.49,1.55v3.71h-1.14Z"/>
    <path class="cls-2" d="M52.21,75.2v-1h5.16v1h-5.16ZM53.63,77.21v-4.73h1.14v4.73h-1.14ZM56.08,80c-.86,0-1.49-.18-1.87-.54s-.58-.93-.58-1.72v-.97h1.14v.91c0,.45.11.78.33.98.22.2.58.31,1.09.31.18,0,.37,0,.57-.03.2-.02.43-.05.69-.08l.13,1c-.25.04-.5.08-.73.1s-.49.03-.76.03Z"/>
    <path class="cls-2" d="M58.7,79.89v-1h3.8v1h-3.8ZM58.92,75.2v-1h1.9l.11,1h-2.01ZM59.97,79.89v-5.69h.92l.21,1.63v4.06h-1.14ZM61.11,77.45l-.33-1.78h.44c.06-1.05.59-1.57,1.57-1.57.59,0,1.01.17,1.28.5s.4.88.4,1.63h-1.13c0-.42-.06-.71-.19-.9-.12-.18-.32-.27-.6-.27-.48,0-.84.21-1.08.62-.24.41-.36,1-.36,1.76Z"/>
    <path class="cls-2" d="M67.94,80c-.79,0-1.4-.26-1.84-.77s-.66-1.24-.66-2.18.22-1.67.66-2.18c.44-.51,1.05-.77,1.84-.77s1.4.26,1.84.77c.43.51.65,1.24.65,2.18s-.22,1.67-.65,2.18c-.44.52-1.05.77-1.84.77ZM67.94,78.98c.42,0,.74-.17.97-.5s.34-.81.34-1.43-.11-1.1-.34-1.43c-.23-.33-.55-.5-.97-.5s-.74.17-.97.5c-.23.33-.34.81-.34,1.43s.11,1.09.34,1.43.55.5.97.5Z"/>
    <path class="cls-2" d="M71.69,72.84v-1h1.77v1h-1.77ZM75.24,80c-.66,0-1.13-.18-1.43-.54s-.44-.93-.44-1.72v-5.91h1.14v5.85c0,.3.03.55.09.74s.17.33.34.42c.17.09.41.13.74.13.3,0,.68-.07,1.14-.2l.13,1c-.29.08-.57.14-.83.17s-.55.05-.86.05Z"/>
    <path class="cls-2" d="M80.39,80c-.43,0-.8-.01-1.1-.04-.31-.02-.59-.07-.84-.12l.13-1.03c.38.06.71.1,1,.13s.56.04.82.04c.58,0,.99-.06,1.25-.17.26-.11.39-.29.39-.54,0-.17-.05-.3-.14-.38-.09-.08-.23-.15-.42-.2l-1.31-.33c-.56-.14-.97-.32-1.24-.53-.26-.21-.39-.53-.39-.96,0-.62.24-1.07.72-1.35.48-.28,1.25-.42,2.31-.42.28,0,.53,0,.77.02.24.02.48.04.73.08l-.12.99c-.29-.03-.55-.05-.77-.06-.22-.01-.44-.02-.65-.02-.64,0-1.1.05-1.39.16-.29.11-.43.29-.43.53,0,.16.06.28.18.36.12.07.3.14.54.2l1.05.26c.6.14,1.04.33,1.31.57s.42.59.42,1.05c0,.61-.22,1.06-.67,1.33-.45.28-1.17.42-2.15.42Z"/>
    <path class="cls-2" d="M92.89,80c-.59,0-1.05-.14-1.38-.43-.33-.29-.49-.69-.49-1.21,0-.6.22-1.06.67-1.39s1.08-.48,1.9-.48c.34,0,.64.02.91.06.27.04.5.1.71.19l-.24.77c-.24-.05-.47-.08-.7-.09-.23,0-.46-.01-.7-.01-.99,0-1.48.3-1.48.9,0,.25.08.44.25.58s.41.2.72.2c.35,0,.65-.06.89-.18s.42-.28.53-.47c.12-.19.18-.38.18-.59v-.62l.33,1.46h-.45l.18-.17c0,.33-.08.6-.23.82-.15.22-.37.39-.64.49-.28.11-.6.16-.98.16ZM94.89,79.95l-.08-1.69-.15-.47v-1.47c0-.38-.13-.66-.4-.83-.27-.18-.66-.27-1.19-.29l-1.36-.04.11-1.01,1.15.02c.94.01,1.64.22,2.1.61.46.39.68.96.68,1.72v2.37l.97.12v.91l-1.83.05Z"/>
    <path class="cls-2" d="M97.85,82.37v-8.16h1.03l.11,1.2v6.96h-1.14ZM100.6,80c-.44,0-.79-.1-1.06-.3s-.42-.48-.45-.84h-.49l.39-1.62c0,.59.12,1.03.35,1.34.23.3.57.46,1.02.46s.81-.16,1.04-.49.35-.81.35-1.44c0-.67-.12-1.18-.35-1.53s-.58-.52-1.04-.52-.79.15-1.02.46c-.23.3-.35.75-.35,1.34l-.39-1.62h.44c.05-.36.21-.64.49-.84.27-.2.63-.3,1.08-.3.75,0,1.31.25,1.7.76.38.51.57,1.26.57,2.25s-.19,1.67-.57,2.16c-.38.49-.95.74-1.7.74Z"/>
    <path class="cls-2" d="M104.29,82.37v-8.16h1.03l.11,1.2v6.96h-1.14ZM107.05,80c-.44,0-.79-.1-1.06-.3s-.42-.48-.45-.84h-.49l.39-1.62c0,.59.12,1.03.35,1.34.23.3.57.46,1.02.46s.81-.16,1.04-.49.35-.81.35-1.44c0-.67-.12-1.18-.35-1.53s-.58-.52-1.04-.52-.79.15-1.02.46c-.23.3-.35.75-.35,1.34l-.39-1.62h.44c.05-.36.21-.64.49-.84.27-.2.63-.3,1.08-.3.75,0,1.31.25,1.7.76.38.51.57,1.26.57,2.25s-.19,1.67-.57,2.16c-.38.49-.95.74-1.7.74Z"/>
    <path class="cls-2" d="M113.55,80c-.97,0-1.72-.25-2.25-.77-.53-.51-.79-1.24-.79-2.2s.22-1.65.67-2.17c.45-.52,1.08-.77,1.9-.77.77,0,1.37.23,1.79.7s.63,1.14.63,2.03c0,.26-.01.5-.03.73h-4v-.87h3c0-.51-.12-.91-.37-1.18-.24-.27-.58-.41-1.01-.41-.48,0-.86.16-1.12.49s-.4.79-.4,1.4c0,.66.18,1.16.55,1.5s.89.52,1.57.52c.24,0,.47-.01.7-.04.23-.03.46-.06.7-.11l.14,1c-.34.06-.64.11-.92.12s-.53.03-.74.03Z"/>
    <path class="cls-2" d="M118.67,80c-.59,0-1.05-.14-1.38-.43-.33-.29-.49-.69-.49-1.21,0-.6.22-1.06.67-1.39s1.08-.48,1.9-.48c.34,0,.64.02.91.06.27.04.5.1.71.19l-.24.77c-.24-.05-.47-.08-.7-.09-.23,0-.46-.01-.7-.01-.99,0-1.48.3-1.48.9,0,.25.08.44.25.58s.41.2.72.2c.35,0,.65-.06.89-.18s.42-.28.53-.47c.12-.19.18-.38.18-.59v-.62l.33,1.46h-.45l.18-.17c0,.33-.08.6-.23.82-.15.22-.37.39-.64.49-.28.11-.6.16-.98.16ZM120.68,79.95l-.08-1.69-.15-.47v-1.47c0-.38-.13-.66-.4-.83-.27-.18-.66-.27-1.19-.29l-1.36-.04.11-1.01,1.15.02c.94.01,1.64.22,2.1.61.46.39.68.96.68,1.72v2.37l.97.12v.91l-1.83.05Z"/>
    <path class="cls-2" d="M123.16,79.89v-1h3.8v1h-3.8ZM123.37,75.2v-1h1.9l.11,1h-2.01ZM124.42,79.89v-5.69h.92l.21,1.63v4.06h-1.14ZM125.56,77.45l-.33-1.78h.44c.06-1.05.59-1.57,1.57-1.57.59,0,1.01.17,1.28.5s.4.88.4,1.63h-1.13c0-.42-.06-.71-.19-.9-.12-.18-.32-.27-.6-.27-.48,0-.84.21-1.08.62-.24.41-.36,1-.36,1.76Z"/>
    <path class="cls-2" d="M132.4,75.68c-.22,0-.41-.08-.56-.23-.16-.16-.23-.34-.23-.56s.08-.41.23-.56c.16-.15.34-.23.56-.23s.41.08.56.23c.15.15.23.34.23.56s-.08.41-.23.56c-.15.16-.34.23-.56.23ZM132.4,80c-.22,0-.41-.08-.56-.23-.16-.16-.23-.34-.23-.56s.08-.41.23-.56c.16-.15.34-.23.56-.23s.41.08.56.23c.15.15.23.34.23.56s-.08.41-.23.56c-.15.16-.34.23-.56.23Z"/>
    <path class="cls-2" d="M17.72,90.87c-.29,0-.56-.07-.8-.21-.24-.14-.43-.33-.57-.57s-.21-.51-.21-.8.07-.56.21-.8.33-.43.57-.57c.24-.14.51-.21.8-.21s.56.07.8.21c.24.14.43.33.57.57s.21.51.21.8-.07.56-.21.8-.33.43-.57.57c-.24.14-.51.21-.8.21Z"/>
    <path class="cls-2" d="M33.25,93.09v-7.63h1.12v7.63h-1.12ZM34.29,93.09v-1.02h.81c.78,0,1.37-.22,1.77-.67s.59-1.12.59-2.01c0-.97-.2-1.7-.59-2.18-.4-.48-.99-.72-1.77-.72h-.78l-.13-1.02h.91c2.33,0,3.49,1.31,3.49,3.92,0,2.47-1.16,3.71-3.49,3.71h-.81Z"/>
    <path class="cls-2" d="M39.37,93.09v-1h3.8v1h-3.8ZM39.58,88.4v-1h1.9l.11,1h-2.01ZM40.64,93.09v-5.69h.92l.21,1.63v4.06h-1.14ZM41.77,90.65l-.33-1.78h.44c.06-1.05.59-1.57,1.57-1.57.59,0,1.01.17,1.28.5s.4.88.4,1.63h-1.13c0-.42-.06-.71-.19-.9-.12-.18-.32-.27-.6-.27-.48,0-.84.21-1.08.62-.24.41-.36,1-.36,1.76Z"/>
    <path class="cls-2" d="M47.77,93.2c-.59,0-1.05-.14-1.38-.43-.33-.29-.49-.69-.49-1.21,0-.6.22-1.06.67-1.39s1.08-.48,1.9-.48c.34,0,.64.02.91.06.27.04.5.1.71.19l-.24.77c-.24-.05-.47-.08-.7-.09-.23,0-.46-.01-.7-.01-.99,0-1.48.3-1.48.9,0,.25.08.44.25.58s.41.2.72.2c.35,0,.65-.06.89-.18s.42-.28.53-.47c.12-.19.18-.38.18-.59v-.62l.33,1.46h-.45l.18-.17c0,.33-.08.6-.23.82-.15.22-.37.39-.64.49-.28.11-.6.16-.98.16ZM49.78,93.15l-.08-1.69-.15-.47v-1.47c0-.38-.13-.66-.4-.83-.27-.18-.66-.27-1.19-.29l-1.36-.04.11-1.01,1.15.02c.94.01,1.64.22,2.1.61.46.39.68.96.68,1.72v2.37l.97.12v.91l-1.83.05Z"/>
    <path class="cls-2" d="M54.62,93.2c-.74,0-1.31-.25-1.69-.74s-.58-1.21-.58-2.16.19-1.74.58-2.25.95-.76,1.69-.76c.44,0,.8.1,1.08.3s.44.48.48.84h.44l-.39,1.62c0-.59-.12-1.03-.35-1.34-.23-.3-.57-.46-1.02-.46s-.81.17-1.04.52-.35.85-.35,1.53c0,.64.12,1.12.35,1.44s.58.49,1.04.49.79-.15,1.02-.46c.23-.3.35-.75.35-1.34l.39,1.62h-.49c-.04.36-.19.64-.45.84s-.62.3-1.06.3ZM52.81,95.66l-.05-1.04,1.83-.05c.58-.02,1-.18,1.26-.48s.39-.74.4-1.33v-4.16l.11-1.2h1.03v5.19c0,1.01-.23,1.76-.69,2.25-.46.48-1.2.74-2.21.77l-1.67.05Z"/>
    <path class="cls-2" d="M65.1,88.4v-1h5.16v1h-5.16ZM66.52,90.41v-4.73h1.14v4.73h-1.14ZM68.97,93.2c-.86,0-1.49-.18-1.87-.54s-.58-.93-.58-1.72v-.97h1.14v.91c0,.45.11.78.33.98.22.2.58.31,1.09.31.18,0,.37,0,.57-.03.2-.02.43-.05.69-.08l.13,1c-.25.04-.5.08-.73.1s-.49.03-.76.03Z"/>
    <path class="cls-2" d="M72.07,93.09v-8.06h1.14v8.06h-1.14ZM75.57,93.09v-3.71c0-.36-.09-.64-.27-.83-.18-.2-.43-.29-.75-.29-.9,0-1.34.54-1.34,1.63l-.33-1.46h.44c.03-.38.17-.67.42-.86.25-.19.61-.28,1.08-.28.6,0,1.07.18,1.4.55s.49.88.49,1.55v3.71h-1.14Z"/>
    <path class="cls-2" d="M81.33,93.2c-.97,0-1.72-.25-2.25-.77-.53-.51-.79-1.24-.79-2.2s.22-1.65.67-2.17c.45-.52,1.08-.77,1.9-.77.77,0,1.37.23,1.79.7s.63,1.14.63,2.03c0,.26-.01.5-.03.73h-4v-.87h3c0-.51-.12-.91-.37-1.18-.24-.27-.58-.41-1.01-.41-.48,0-.86.16-1.12.49s-.4.79-.4,1.4c0,.66.18,1.16.55,1.5s.89.52,1.57.52c.24,0,.47-.01.7-.04.23-.03.46-.06.7-.11l.14,1c-.34.06-.64.11-.92.12s-.53.03-.74.03Z"/>
    <path class="cls-2" d="M93.28,93.2c-.43,0-.8-.01-1.1-.04-.31-.02-.59-.07-.84-.12l.13-1.03c.38.06.71.1,1,.13s.56.04.82.04c.58,0,.99-.06,1.25-.17.26-.11.39-.29.39-.54,0-.17-.05-.3-.14-.38-.09-.08-.23-.15-.42-.2l-1.31-.33c-.56-.14-.97-.32-1.24-.53-.26-.21-.39-.53-.39-.96,0-.62.24-1.07.72-1.35.48-.28,1.25-.42,2.31-.42.28,0,.53,0,.77.02.24.02.48.04.73.08l-.12.99c-.29-.03-.55-.05-.77-.06-.22-.01-.44-.02-.65-.02-.64,0-1.1.05-1.39.16-.29.11-.43.29-.43.53,0,.16.06.28.18.36.12.07.3.14.54.2l1.05.26c.6.14,1.04.33,1.31.57s.42.59.42,1.05c0,.61-.22,1.06-.67,1.33-.45.28-1.17.42-2.15.42Z"/>
    <path class="cls-2" d="M97.32,88.4v-1h5.16v1h-5.16ZM98.75,90.41v-4.73h1.14v4.73h-1.14ZM101.2,93.2c-.86,0-1.49-.18-1.87-.54s-.58-.93-.58-1.72v-.97h1.14v.91c0,.45.11.78.33.98.22.2.58.31,1.09.31.18,0,.37,0,.57-.03.2-.02.43-.05.69-.08l.13,1c-.25.04-.5.08-.73.1s-.49.03-.76.03Z"/>
    <path class="cls-2" d="M104.25,93.09v-1h2.28v1h-2.28ZM104.57,88.4v-1h2.99v1h-2.99ZM106.95,86.5c-.22,0-.41-.08-.56-.23s-.23-.34-.23-.56.08-.41.23-.56c.16-.15.34-.23.56-.23s.41.08.56.23.23.34.23.56-.08.41-.23.56c-.15.16-.34.23-.56.23ZM106.42,93.09v-5.37h1.14v5.37h-1.14ZM107.45,93.09v-1h1.86v1h-1.86Z"/>
    <path class="cls-2" d="M113.61,93.2c-.97,0-1.72-.25-2.25-.77-.53-.51-.79-1.24-.79-2.2s.25-1.65.75-2.17c.5-.52,1.21-.77,2.14-.77.55,0,1.03.1,1.43.31.4.21.68.5.85.87l-.88.66c-.16-.26-.37-.46-.62-.61-.25-.14-.52-.21-.82-.21-.54,0-.95.16-1.25.49-.3.32-.45.78-.45,1.38,0,.65.17,1.14.52,1.49.35.34.85.51,1.5.51.26,0,.53-.01.79-.04s.52-.06.77-.1l.13,1c-.29.06-.6.11-.91.13s-.62.03-.92.03Z"/>
    <path class="cls-2" d="M117.14,93.09v-8.06h1.14v8.06h-1.14ZM117.95,90.94v-1.02h.64c.47,0,.86-.08,1.17-.24.3-.16.54-.43.72-.8s.3-.86.38-1.47h1.18c-.15,1.19-.49,2.07-1.01,2.66-.52.58-1.25.88-2.17.88h-.91ZM121,93.09l-1.62-2.77,1.07-.44,1.96,3.21h-1.41Z"/>
    <path class="cls-2" d="M126.44,93.2c-.97,0-1.72-.25-2.25-.77-.53-.51-.79-1.24-.79-2.2s.22-1.65.67-2.17c.45-.52,1.08-.77,1.9-.77.77,0,1.37.23,1.79.7s.63,1.14.63,2.03c0,.26-.01.5-.03.73h-4v-.87h3c0-.51-.12-.91-.37-1.18-.24-.27-.58-.41-1.01-.41-.48,0-.86.16-1.12.49s-.4.79-.4,1.4c0,.66.18,1.16.55,1.5s.89.52,1.57.52c.24,0,.47-.01.7-.04.23-.03.46-.06.7-.11l.14,1c-.34.06-.64.11-.92.12s-.53.03-.74.03Z"/>
    <path class="cls-2" d="M129.6,93.09v-1h3.8v1h-3.8ZM129.82,88.4v-1h1.9l.11,1h-2.01ZM130.87,93.09v-5.69h.92l.21,1.63v4.06h-1.14ZM132.01,90.65l-.33-1.78h.44c.06-1.05.59-1.57,1.57-1.57.59,0,1.01.17,1.28.5s.4.88.4,1.63h-1.13c0-.42-.06-.71-.19-.9-.12-.18-.32-.27-.6-.27-.48,0-.84.21-1.08.62-.24.41-.36,1-.36,1.76Z"/>
    <path class="cls-2" d="M142.94,93.09v-8.06h1.14v7.96l-1.14.1ZM144.46,93.2c-.26,0-.51,0-.76-.03-.25-.02-.51-.05-.76-.08l.44-1.04c.19.09.4.14.63.16.23.02.46.02.68.02.68,0,1.21-.21,1.59-.62s.56-.99.56-1.75c0-.52-.11-.91-.34-1.19s-.55-.42-.97-.42c-.97,0-1.45.54-1.45,1.63l-.33-1.46h.44c.05-.76.52-1.14,1.4-1.14.76,0,1.35.22,1.76.67.42.45.62,1.08.62,1.91,0,1.06-.3,1.88-.92,2.46-.61.58-1.47.87-2.59.87Z"/>
    <path class="cls-2" d="M151.07,93.09l-2.27-5.69h1.18l1.86,4.83h.17v.86h-.95ZM148.91,95.67l-.05-1.02.89-.11c.38-.05.7-.15.96-.31s.5-.39.68-.7c.19-.31.36-.72.5-1.22l1.42-4.92h1.18l-1.64,5.19c-.21.68-.46,1.23-.72,1.64s-.58.73-.95.93-.8.34-1.31.4l-.97.11Z"/>
    <path class="cls-2" d="M165.17,93.2c-.97,0-1.72-.25-2.25-.77-.53-.51-.79-1.24-.79-2.2s.25-1.65.75-2.17c.5-.52,1.21-.77,2.14-.77.55,0,1.03.1,1.43.31.4.21.68.5.85.87l-.88.66c-.16-.26-.37-.46-.62-.61-.25-.14-.52-.21-.82-.21-.54,0-.95.16-1.25.49-.3.32-.45.78-.45,1.38,0,.65.17,1.14.52,1.49.35.34.85.51,1.5.51.26,0,.53-.01.79-.04s.52-.06.77-.1l.13,1c-.29.06-.6.11-.91.13s-.62.03-.92.03Z"/>
    <path class="cls-2" d="M168.37,86.04v-1h1.77v1h-1.77ZM171.92,93.2c-.66,0-1.13-.18-1.43-.54s-.44-.93-.44-1.72v-5.91h1.14v5.85c0,.3.03.55.09.74s.17.33.34.42c.17.09.41.13.74.13.3,0,.68-.07,1.14-.2l.13,1c-.29.08-.57.14-.83.17s-.55.05-.86.05Z"/>
    <path class="cls-2" d="M175.15,93.09v-1h2.28v1h-2.28ZM175.47,88.4v-1h2.99v1h-2.99ZM177.85,86.5c-.22,0-.41-.08-.56-.23s-.23-.34-.23-.56.08-.41.23-.56c.16-.15.34-.23.56-.23s.41.08.56.23.23.34.23.56-.08.41-.23.56c-.15.16-.34.23-.56.23ZM177.32,93.09v-5.37h1.14v5.37h-1.14ZM178.35,93.09v-1h1.86v1h-1.86Z"/>
    <path class="cls-2" d="M184.51,93.2c-.97,0-1.72-.25-2.25-.77-.53-.51-.79-1.24-.79-2.2s.25-1.65.75-2.17c.5-.52,1.21-.77,2.14-.77.55,0,1.03.1,1.43.31.4.21.68.5.85.87l-.88.66c-.16-.26-.37-.46-.62-.61-.25-.14-.52-.21-.82-.21-.54,0-.95.16-1.25.49-.3.32-.45.78-.45,1.38,0,.65.17,1.14.52,1.49.35.34.85.51,1.5.51.26,0,.53-.01.79-.04s.52-.06.77-.1l.13,1c-.29.06-.6.11-.91.13s-.62.03-.92.03Z"/>
    <path class="cls-2" d="M188.04,93.09v-8.06h1.14v8.06h-1.14ZM188.85,90.94v-1.02h.64c.47,0,.86-.08,1.17-.24.3-.16.54-.43.72-.8s.3-.86.38-1.47h1.18c-.15,1.19-.49,2.07-1.01,2.66-.52.58-1.25.88-2.17.88h-.91ZM191.9,93.09l-1.62-2.77,1.07-.44,1.96,3.21h-1.41Z"/>
    <path class="cls-2" d="M194.16,89.79v-1h5.37v1h-5.37Z"/>
    <path class="cls-2" d="M33.35,106.29v-1h2.28v1h-2.28ZM33.67,101.6v-1h2.99v1h-2.99ZM36.05,99.7c-.22,0-.41-.08-.56-.23s-.23-.34-.23-.56.08-.41.23-.56c.16-.15.34-.23.56-.23s.41.08.56.23.23.34.23.56-.08.41-.23.56c-.15.16-.34.23-.56.23ZM35.52,106.29v-5.37h1.14v5.37h-1.14ZM36.55,106.29v-1h1.86v1h-1.86Z"/>
    <path class="cls-2" d="M39.84,106.29v-5.69h1.03l.11,1.2v4.49h-1.14ZM43.34,106.29v-3.71c0-.34-.09-.61-.27-.79s-.43-.28-.75-.28c-.9,0-1.34.53-1.34,1.58l-.33-1.46h.44c.03-.38.17-.67.42-.86.25-.19.61-.28,1.08-.28.6,0,1.07.18,1.4.55s.49.88.49,1.55v3.71h-1.14Z"/>
    <path class="cls-2" d="M48.17,106.4c-.74,0-1.31-.25-1.69-.74-.38-.49-.58-1.21-.58-2.17s.19-1.74.58-2.24.95-.76,1.69-.76c.44,0,.8.1,1.08.3s.44.48.48.84h.44l-.39,1.62c0-.59-.12-1.03-.35-1.34-.23-.3-.57-.46-1.02-.46s-.81.17-1.04.52c-.24.34-.35.85-.35,1.52,0,.64.12,1.12.35,1.45.24.33.58.49,1.04.49s.79-.15,1.02-.46c.23-.3.35-.75.35-1.34l.39,1.62h-.49c-.04.36-.19.64-.45.84-.27.2-.62.3-1.06.3ZM46.36,108.86l-.05-1.04,1.83-.05c.58-.02,1-.18,1.26-.48s.39-.74.4-1.33v-4.16l.11-1.2h1.03v5.19c0,1.01-.23,1.76-.69,2.25-.46.48-1.2.74-2.21.77l-1.67.05Z"/>
    <path class="cls-2" d="M52.44,107.31l4.32-9.67h1.14l-4.32,9.67h-1.14Z"/>
    <path class="cls-2" d="M58.65,101.6v-1h5.16v1h-5.16ZM60.08,103.61v-4.73h1.14v4.73h-1.14ZM62.53,106.4c-.86,0-1.49-.18-1.87-.54-.38-.36-.58-.93-.58-1.72v-.97h1.14v.91c0,.45.11.78.33.98.22.2.58.31,1.09.31.18,0,.37,0,.57-.03s.43-.05.69-.08l.13,1c-.25.04-.5.08-.73.1s-.49.03-.76.03Z"/>
    <path class="cls-2" d="M67.94,106.4c-.79,0-1.4-.26-1.84-.77s-.66-1.24-.66-2.18.22-1.67.66-2.18c.44-.51,1.05-.77,1.84-.77s1.4.26,1.84.77c.43.51.65,1.24.65,2.18s-.22,1.67-.65,2.18c-.44.52-1.05.77-1.84.77ZM67.94,105.38c.42,0,.74-.17.97-.5.23-.34.34-.81.34-1.43s-.11-1.1-.34-1.43c-.23-.33-.55-.5-.97-.5s-.74.17-.97.5c-.23.33-.34.81-.34,1.43s.11,1.09.34,1.43c.23.34.55.5.97.5Z"/>
    <path class="cls-2" d="M73.83,106.4c-.6,0-1.06-.18-1.39-.53-.33-.36-.49-.86-.49-1.51v-3.76h1.14v3.76c0,.33.09.58.28.75.19.18.45.27.78.27.42,0,.73-.13.94-.39.21-.26.32-.7.32-1.32l.29,1.54h-.38c-.09.39-.26.68-.53.89-.26.21-.58.31-.97.31ZM75.41,104.68v-4.08h1.14v3.76l-1.14.32ZM75.5,106.35l-.1-1.36v-1h1.14v1.28l.78.12v.91l-1.83.05Z"/>
    <path class="cls-2" d="M81.38,106.4c-.97,0-1.72-.25-2.25-.77-.53-.51-.79-1.24-.79-2.2s.25-1.65.75-2.17c.5-.52,1.21-.77,2.14-.77.55,0,1.03.1,1.43.31.4.21.68.5.85.87l-.88.66c-.16-.26-.37-.46-.62-.61-.25-.14-.52-.21-.82-.21-.54,0-.95.16-1.25.49-.3.32-.45.79-.45,1.38,0,.65.17,1.14.52,1.49.35.34.85.51,1.5.51.26,0,.53-.01.79-.04.26-.03.52-.06.77-.1l.13,1c-.29.06-.6.11-.91.13s-.62.03-.92.03Z"/>
    <path class="cls-2" d="M84.96,106.29v-8.06h1.14v8.06h-1.14ZM88.46,106.29v-3.71c0-.36-.09-.64-.27-.83-.18-.2-.43-.29-.75-.29-.9,0-1.34.54-1.34,1.63l-.33-1.46h.44c.03-.38.17-.67.42-.86.25-.19.61-.28,1.08-.28.6,0,1.07.18,1.4.55s.49.88.49,1.55v3.71h-1.14Z"/>
    <path class="cls-2" d="M91.36,106.29v-1h2.28v1h-2.28ZM91.68,101.6v-1h2.99v1h-2.99ZM94.06,99.7c-.22,0-.41-.08-.56-.23s-.23-.34-.23-.56.08-.41.23-.56c.16-.15.34-.23.56-.23s.41.08.56.23.23.34.23.56-.08.41-.23.56c-.15.16-.34.23-.56.23ZM93.53,106.29v-5.37h1.14v5.37h-1.14ZM94.56,106.29v-1h1.86v1h-1.86Z"/>
    <path class="cls-2" d="M97.85,106.29v-5.69h1.03l.11,1.2v4.49h-1.14ZM101.35,106.29v-3.71c0-.34-.09-.61-.27-.79s-.43-.28-.75-.28c-.9,0-1.34.53-1.34,1.58l-.33-1.46h.44c.03-.38.17-.67.42-.86.25-.19.61-.28,1.08-.28.6,0,1.07.18,1.4.55s.49.88.49,1.55v3.71h-1.14Z"/>
    <path class="cls-2" d="M106.18,106.4c-.74,0-1.31-.25-1.69-.74-.38-.49-.58-1.21-.58-2.17s.19-1.74.58-2.24.95-.76,1.69-.76c.44,0,.8.1,1.08.3s.44.48.48.84h.44l-.39,1.62c0-.59-.12-1.03-.35-1.34-.23-.3-.57-.46-1.02-.46s-.81.17-1.04.52c-.24.34-.35.85-.35,1.52,0,.64.12,1.12.35,1.45.24.33.58.49,1.04.49s.79-.15,1.02-.46c.23-.3.35-.75.35-1.34l.39,1.62h-.49c-.04.36-.19.64-.45.84-.27.2-.62.3-1.06.3ZM104.37,108.86l-.05-1.04,1.83-.05c.58-.02,1-.18,1.26-.48s.39-.74.4-1.33v-4.16l.11-1.2h1.03v5.19c0,1.01-.23,1.76-.69,2.25-.46.48-1.2.74-2.21.77l-1.67.05Z"/>
    <path class="cls-2" d="M118.67,106.4c-.59,0-1.05-.14-1.38-.43-.33-.29-.49-.69-.49-1.21,0-.6.22-1.06.67-1.39s1.08-.48,1.9-.48c.34,0,.64.02.91.06.27.04.5.1.71.19l-.24.77c-.24-.05-.47-.08-.7-.09-.23,0-.46-.01-.7-.01-.99,0-1.48.3-1.48.9,0,.25.08.44.25.58.17.14.41.2.72.2.35,0,.65-.06.89-.18.24-.12.42-.28.53-.47.12-.19.18-.38.18-.59v-.62l.33,1.46h-.45l.18-.17c0,.33-.08.6-.23.82-.15.22-.37.39-.64.49-.28.11-.6.16-.98.16ZM120.68,106.35l-.08-1.69-.15-.47v-1.47c0-.38-.13-.66-.4-.83-.27-.18-.66-.27-1.19-.29l-1.36-.04.11-1.01,1.15.02c.94.01,1.64.22,2.1.61.46.39.68.96.68,1.72v2.37l.97.12v.91l-1.83.05Z"/>
    <path class="cls-2" d="M123.63,106.29v-5.69h1.03l.11,1.2v4.49h-1.14ZM127.13,106.29v-3.71c0-.34-.09-.61-.27-.79s-.43-.28-.75-.28c-.9,0-1.34.53-1.34,1.58l-.33-1.46h.44c.03-.38.17-.67.42-.86.25-.19.61-.28,1.08-.28.6,0,1.07.18,1.4.55s.49.88.49,1.55v3.71h-1.14Z"/>
    <path class="cls-2" d="M131.96,106.4c-.74,0-1.31-.25-1.69-.74-.38-.49-.58-1.21-.58-2.17s.19-1.74.58-2.24.95-.76,1.69-.76c.43,0,.77.1,1.04.3s.42.48.47.84h.44l-.33,1.62c0-.59-.12-1.03-.35-1.34-.23-.3-.57-.46-1.02-.46s-.81.17-1.04.52c-.24.34-.35.85-.35,1.52,0,.64.12,1.12.35,1.45.24.33.58.49,1.04.49s.79-.15,1.02-.46c.23-.3.35-.75.35-1.34l.39,1.62h-.49c-.04.36-.19.64-.45.84-.27.2-.62.3-1.06.3ZM133.7,106.35l-.12-1.12v-6.99h1.14v8.06l-1.02.05Z"/>
    <path class="cls-2" d="M142.67,106.29v-5.69h1.01l.13,1.2v4.49h-1.14ZM144.8,106.29v-4.46c0-.32-.15-.48-.45-.48-.37,0-.55.26-.55.77l-.33-.82h.37c.04-.54.37-.82.98-.82.3,0,.53.1.7.31s.25.51.25.93v4.56h-.97ZM146.77,106.29v-4.35c0-.39-.15-.59-.44-.59-.37,0-.56.26-.56.77l-.39-.82h.44c.02-.22.11-.41.27-.57s.39-.24.69-.24c.39,0,.68.11.86.32s.27.55.27,1.03v4.46h-1.14Z"/>
    <path class="cls-2" d="M151.73,106.4c-.79,0-1.4-.26-1.84-.77s-.66-1.24-.66-2.18.22-1.67.66-2.18c.44-.51,1.05-.77,1.84-.77s1.4.26,1.84.77c.43.51.65,1.24.65,2.18s-.22,1.67-.65,2.18c-.44.52-1.05.77-1.84.77ZM151.73,105.38c.42,0,.74-.17.97-.5.23-.34.34-.81.34-1.43s-.11-1.1-.34-1.43c-.23-.33-.55-.5-.97-.5s-.74.17-.97.5c-.23.33-.34.81-.34,1.43s.11,1.09.34,1.43c.23.34.55.5.97.5Z"/>
    <path class="cls-2" d="M157.42,106.29l-2.04-5.69h1.21l1.53,4.73h.1l1.53-4.73h1.21l-2.04,5.69h-1.52Z"/>
    <path class="cls-2" d="M162.26,106.29v-1h2.28v1h-2.28ZM162.58,101.6v-1h2.99v1h-2.99ZM164.96,99.7c-.22,0-.41-.08-.56-.23s-.23-.34-.23-.56.08-.41.23-.56c.16-.15.34-.23.56-.23s.41.08.56.23.23.34.23.56-.08.41-.23.56c-.15.16-.34.23-.56.23ZM164.43,106.29v-5.37h1.14v5.37h-1.14ZM165.46,106.29v-1h1.86v1h-1.86Z"/>
    <path class="cls-2" d="M168.75,106.29v-5.69h1.03l.11,1.2v4.49h-1.14ZM172.25,106.29v-3.71c0-.34-.09-.61-.27-.79s-.43-.28-.75-.28c-.9,0-1.34.53-1.34,1.58l-.33-1.46h.44c.03-.38.17-.67.42-.86.25-.19.61-.28,1.08-.28.6,0,1.07.18,1.4.55s.49.88.49,1.55v3.71h-1.14Z"/>
    <path class="cls-2" d="M177.08,106.4c-.74,0-1.31-.25-1.69-.74-.38-.49-.58-1.21-.58-2.17s.19-1.74.58-2.24.95-.76,1.69-.76c.44,0,.8.1,1.08.3s.44.48.48.84h.44l-.39,1.62c0-.59-.12-1.03-.35-1.34-.23-.3-.57-.46-1.02-.46s-.81.17-1.04.52c-.24.34-.35.85-.35,1.52,0,.64.12,1.12.35,1.45.24.33.58.49,1.04.49s.79-.15,1.02-.46c.23-.3.35-.75.35-1.34l.39,1.62h-.49c-.04.36-.19.64-.45.84-.27.2-.62.3-1.06.3ZM175.27,108.86l-.05-1.04,1.83-.05c.58-.02,1-.18,1.26-.48s.39-.74.4-1.33v-4.16l.11-1.2h1.03v5.19c0,1.01-.23,1.76-.69,2.25-.46.48-1.2.74-2.21.77l-1.67.05Z"/>
    <path class="cls-2" d="M183.96,106.4c-.22,0-.41-.08-.56-.23-.16-.16-.23-.34-.23-.56s.08-.41.23-.56c.16-.15.34-.23.56-.23s.41.08.56.23.23.34.23.56-.08.41-.23.56c-.15.16-.34.23-.56.23Z"/>
    <path class="cls-2" d="M17.72,117.27c-.29,0-.56-.07-.8-.21-.24-.14-.43-.33-.57-.58-.14-.24-.21-.51-.21-.8s.07-.56.21-.8c.14-.24.33-.43.57-.57.24-.14.51-.21.8-.21s.56.07.8.21c.24.14.43.33.57.57.14.24.21.51.21.8s-.07.56-.21.8c-.14.24-.33.43-.57.58-.24.14-.51.21-.8.21Z"/>
    <path class="cls-2" d="M33.25,119.49v-7.63h1.12v7.63h-1.12ZM34.29,116.59v-1.02h1.58c.43,0,.76-.11,1-.34s.36-.54.36-.95c0-.45-.12-.79-.36-1.03-.24-.24-.57-.36-1-.36h-1.56l-.13-1.02h1.69c.79,0,1.4.2,1.83.6.43.4.65.97.65,1.71s-.22,1.36-.65,1.78c-.43.42-1.04.63-1.83.63h-1.58ZM37.34,119.49l-1.71-3.59h1.18l1.82,3.59h-1.29Z"/>
    <path class="cls-2" d="M42.66,119.6c-.97,0-1.72-.25-2.25-.77-.53-.51-.79-1.24-.79-2.2s.22-1.65.67-2.17c.45-.52,1.08-.77,1.9-.77.77,0,1.37.23,1.79.7.42.46.63,1.14.63,2.03,0,.26-.01.5-.03.73h-4v-.87h3c0-.51-.12-.91-.37-1.18-.24-.27-.58-.41-1.01-.41-.48,0-.86.16-1.12.49-.27.33-.4.79-.4,1.4,0,.66.18,1.16.55,1.5s.89.52,1.57.52c.24,0,.47-.01.7-.04.23-.03.46-.06.7-.11l.14,1c-.34.06-.64.11-.92.12-.28.02-.53.03-.74.03Z"/>
    <path class="cls-2" d="M48.17,119.6c-.43,0-.8-.01-1.1-.04-.31-.02-.59-.07-.84-.12l.13-1.03c.38.06.71.1,1,.13.29.03.56.04.82.04.58,0,.99-.06,1.25-.17.26-.11.39-.29.39-.54,0-.17-.05-.3-.14-.38-.09-.08-.23-.15-.42-.2l-1.31-.33c-.56-.14-.97-.32-1.24-.53-.26-.21-.39-.53-.39-.96,0-.62.24-1.07.72-1.35.48-.28,1.25-.42,2.31-.42.28,0,.53,0,.77.02.24.02.48.04.73.08l-.12.99c-.29-.03-.55-.05-.77-.06-.22-.01-.44-.02-.65-.02-.64,0-1.1.05-1.39.16-.29.11-.43.29-.43.53,0,.16.06.28.18.36.12.07.3.14.54.2l1.05.26c.6.14,1.04.33,1.31.57.28.24.42.59.42,1.05,0,.61-.22,1.06-.67,1.33-.45.28-1.17.42-2.15.42Z"/>
    <path class="cls-2" d="M52.69,119.49v-1h2.28v1h-2.28ZM53.01,114.8v-1h2.99v1h-2.99ZM55.39,112.9c-.22,0-.41-.08-.56-.23s-.23-.34-.23-.56.08-.41.23-.56c.16-.15.34-.23.56-.23s.41.08.56.23c.15.15.23.34.23.56s-.08.41-.23.56c-.15.16-.34.23-.56.23ZM54.86,119.49v-5.37h1.14v5.37h-1.14ZM55.89,119.49v-1h1.86v1h-1.86Z"/>
    <path class="cls-2" d="M59.16,114.81v-1.01h4.58v1.01h-4.58ZM59.94,119.14l-.78-.66,3.79-4.31.78.63-3.79,4.33ZM59.16,119.49v-1.01h4.68v1.01h-4.68Z"/>
    <path class="cls-2" d="M68.44,119.6c-.97,0-1.72-.25-2.25-.77-.53-.51-.79-1.24-.79-2.2s.22-1.65.67-2.17c.45-.52,1.08-.77,1.9-.77.77,0,1.37.23,1.79.7.42.46.63,1.14.63,2.03,0,.26-.01.5-.03.73h-4v-.87h3c0-.51-.12-.91-.37-1.18-.24-.27-.58-.41-1.01-.41-.48,0-.86.16-1.12.49-.27.33-.4.79-.4,1.4,0,.66.18,1.16.55,1.5s.89.52,1.57.52c.24,0,.47-.01.7-.04.23-.03.46-.06.7-.11l.14,1c-.34.06-.64.11-.92.12-.28.02-.53.03-.74.03Z"/>
    <path class="cls-2" d="M80.27,119.6c-.6,0-1.06-.18-1.39-.53-.33-.36-.49-.86-.49-1.51v-3.76h1.14v3.76c0,.33.09.58.28.75.19.18.45.27.78.27.42,0,.73-.13.94-.39.21-.26.32-.71.32-1.32l.29,1.54h-.38c-.09.39-.26.68-.53.89-.26.21-.58.31-.97.31ZM81.85,117.88v-4.08h1.14v3.76l-1.14.32ZM81.95,119.55l-.1-1.36v-1h1.14v1.28l.78.12v.91l-1.83.05Z"/>
    <path class="cls-2" d="M86.84,119.6c-.43,0-.8-.01-1.1-.04-.31-.02-.59-.07-.84-.12l.13-1.03c.38.06.71.1,1,.13.29.03.56.04.82.04.58,0,.99-.06,1.25-.17.26-.11.39-.29.39-.54,0-.17-.05-.3-.14-.38-.09-.08-.23-.15-.42-.2l-1.31-.33c-.56-.14-.97-.32-1.24-.53-.26-.21-.39-.53-.39-.96,0-.62.24-1.07.72-1.35.48-.28,1.25-.42,2.31-.42.28,0,.53,0,.77.02.24.02.48.04.73.08l-.12.99c-.29-.03-.55-.05-.77-.06-.22-.01-.44-.02-.65-.02-.64,0-1.1.05-1.39.16-.29.11-.43.29-.43.53,0,.16.06.28.18.36.12.07.3.14.54.2l1.05.26c.6.14,1.04.33,1.31.57.28.24.42.59.42,1.05,0,.61-.22,1.06-.67,1.33-.45.28-1.17.42-2.15.42Z"/>
    <path class="cls-2" d="M91.36,119.49v-1h2.28v1h-2.28ZM91.68,114.8v-1h2.99v1h-2.99ZM94.06,112.9c-.22,0-.41-.08-.56-.23s-.23-.34-.23-.56.08-.41.23-.56c.16-.15.34-.23.56-.23s.41.08.56.23c.15.15.23.34.23.56s-.08.41-.23.56c-.15.16-.34.23-.56.23ZM93.53,119.49v-5.37h1.14v5.37h-1.14ZM94.56,119.49v-1h1.86v1h-1.86Z"/>
    <path class="cls-2" d="M97.85,119.49v-5.69h1.03l.11,1.2v4.49h-1.14ZM101.35,119.49v-3.71c0-.34-.09-.61-.27-.79-.18-.19-.43-.28-.75-.28-.9,0-1.34.53-1.34,1.58l-.33-1.46h.44c.03-.38.17-.67.42-.86.25-.19.61-.28,1.08-.28.6,0,1.07.18,1.4.55s.49.88.49,1.55v3.71h-1.14Z"/>
    <path class="cls-2" d="M106.18,119.6c-.74,0-1.31-.25-1.69-.74-.38-.49-.58-1.21-.58-2.16s.19-1.74.58-2.25c.38-.51.95-.76,1.69-.76.44,0,.8.1,1.08.3.28.2.44.48.48.84h.44l-.39,1.62c0-.59-.12-1.03-.35-1.34-.23-.3-.57-.46-1.02-.46s-.81.17-1.04.52-.35.85-.35,1.53c0,.64.12,1.12.35,1.44.24.33.58.49,1.04.49s.79-.15,1.02-.46c.23-.3.35-.75.35-1.34l.39,1.62h-.49c-.04.36-.19.64-.45.84-.27.2-.62.3-1.06.3ZM104.37,122.06l-.05-1.04,1.83-.05c.58-.02,1-.18,1.26-.48s.39-.74.4-1.33v-4.16l.11-1.2h1.03v5.19c0,1.01-.23,1.76-.69,2.25-.46.48-1.2.74-2.21.77l-1.67.05Z"/>
    <path class="cls-2" d="M116.66,114.8v-1h5.16v1h-5.16ZM118.09,116.81v-4.73h1.14v4.73h-1.14ZM120.54,119.6c-.86,0-1.49-.18-1.87-.54-.38-.36-.58-.93-.58-1.72v-.97h1.14v.91c0,.45.11.78.33.98.22.2.58.31,1.09.31.18,0,.37,0,.57-.03.2-.02.43-.05.69-.08l.13,1c-.25.04-.5.08-.73.1s-.49.03-.76.03Z"/>
    <path class="cls-2" d="M123.63,119.49v-8.06h1.14v8.06h-1.14ZM127.13,119.49v-3.71c0-.36-.09-.64-.27-.83-.18-.2-.43-.29-.75-.29-.9,0-1.34.54-1.34,1.63l-.33-1.46h.44c.03-.38.17-.67.42-.86.25-.19.61-.28,1.08-.28.6,0,1.07.18,1.4.55s.49.88.49,1.55v3.71h-1.14Z"/>
    <path class="cls-2" d="M132.89,119.6c-.97,0-1.72-.25-2.25-.77-.53-.51-.79-1.24-.79-2.2s.22-1.65.67-2.17c.45-.52,1.08-.77,1.9-.77.77,0,1.37.23,1.79.7.42.46.63,1.14.63,2.03,0,.26-.01.5-.03.73h-4v-.87h3c0-.51-.12-.91-.37-1.18-.24-.27-.58-.41-1.01-.41-.48,0-.86.16-1.12.49-.27.33-.4.79-.4,1.4,0,.66.18,1.16.55,1.5s.89.52,1.57.52c.24,0,.47-.01.7-.04.23-.03.46-.06.7-.11l.14,1c-.34.06-.64.11-.92.12-.28.02-.53.03-.74.03Z"/>
    <path class="cls-2" d="M142.43,116.06v-1h5.26v1h-5.26ZM144.22,119.49v-5.21c0-1.97.9-2.95,2.7-2.95.41,0,.8.04,1.18.11l-.12.99c-.23-.03-.42-.05-.6-.06s-.34-.02-.5-.02c-1.02,0-1.53.63-1.53,1.88v5.26h-1.14Z"/>
    <path class="cls-2" d="M151.73,119.6c-.79,0-1.4-.26-1.84-.77s-.66-1.24-.66-2.18.22-1.67.66-2.18,1.05-.77,1.84-.77,1.4.26,1.84.77c.43.51.65,1.24.65,2.18s-.22,1.67-.65,2.18c-.44.52-1.05.77-1.84.77ZM151.73,118.58c.42,0,.74-.17.97-.5.23-.34.34-.81.34-1.43s-.11-1.1-.34-1.43-.55-.5-.97-.5-.74.17-.97.5-.34.81-.34,1.43.11,1.09.34,1.43c.23.34.55.5.97.5Z"/>
    <path class="cls-2" d="M157.62,119.6c-.6,0-1.06-.18-1.39-.53-.33-.36-.49-.86-.49-1.51v-3.76h1.14v3.76c0,.33.09.58.28.75.19.18.45.27.78.27.42,0,.73-.13.94-.39.21-.26.32-.71.32-1.32l.29,1.54h-.38c-.09.39-.26.68-.53.89-.26.21-.58.31-.97.31ZM159.2,117.88v-4.08h1.14v3.76l-1.14.32ZM159.29,119.55l-.1-1.36v-1h1.14v1.28l.78.12v.91l-1.83.05Z"/>
    <path class="cls-2" d="M161.83,119.49v-1h3.8v1h-3.8ZM162.04,114.8v-1h1.9l.11,1h-2.01ZM163.1,119.49v-5.69h.92l.21,1.63v4.06h-1.14ZM164.24,117.04l-.33-1.78h.44c.06-1.05.59-1.57,1.57-1.57.59,0,1.01.17,1.28.5.26.34.4.88.4,1.63h-1.13c0-.42-.06-.71-.19-.9-.12-.18-.32-.27-.6-.27-.48,0-.84.21-1.08.62-.24.41-.36,1-.36,1.76Z"/>
    <path class="cls-2" d="M178.06,119.6c-.97,0-1.72-.25-2.25-.77-.53-.51-.79-1.24-.79-2.2s.25-1.65.75-2.17c.5-.52,1.21-.77,2.14-.77.55,0,1.03.1,1.43.31s.68.5.85.87l-.88.66c-.16-.26-.37-.46-.62-.61-.25-.14-.52-.21-.82-.21-.54,0-.95.16-1.25.49-.3.32-.45.78-.45,1.38,0,.65.17,1.14.52,1.49.35.34.85.51,1.5.51.26,0,.53-.01.79-.04.26-.02.52-.06.77-.1l.13,1c-.29.06-.6.11-.91.13s-.62.03-.92.03Z"/>
    <path class="cls-2" d="M183.96,119.6c-.79,0-1.4-.26-1.84-.77s-.66-1.24-.66-2.18.22-1.67.66-2.18,1.05-.77,1.84-.77,1.4.26,1.84.77c.43.51.65,1.24.65,2.18s-.22,1.67-.65,2.18c-.44.52-1.05.77-1.84.77ZM183.96,118.58c.42,0,.74-.17.97-.5.23-.34.34-.81.34-1.43s-.11-1.1-.34-1.43-.55-.5-.97-.5-.74.17-.97.5-.34.81-.34,1.43.11,1.09.34,1.43c.23.34.55.5.97.5Z"/>
    <path class="cls-2" d="M187.61,119.49v-1h3.8v1h-3.8ZM187.83,114.8v-1h1.9l.11,1h-2.01ZM188.88,119.49v-5.69h.92l.21,1.63v4.06h-1.14ZM190.02,117.04l-.33-1.78h.44c.06-1.05.59-1.57,1.57-1.57.59,0,1.01.17,1.28.5.26.34.4.88.4,1.63h-1.13c0-.42-.06-.71-.19-.9-.12-.18-.32-.27-.6-.27-.48,0-.84.21-1.08.62-.24.41-.36,1-.36,1.76Z"/>
    <path class="cls-2" d="M194.53,119.49v-5.69h1.03l.11,1.2v4.49h-1.14ZM198.03,119.49v-3.71c0-.34-.09-.61-.27-.79-.18-.19-.43-.28-.75-.28-.9,0-1.34.53-1.34,1.58l-.33-1.46h.44c.03-.38.17-.67.42-.86.25-.19.61-.28,1.08-.28.6,0,1.07.18,1.4.55s.49.88.49,1.55v3.71h-1.14Z"/>
    <path class="cls-2" d="M203.79,119.6c-.97,0-1.72-.25-2.25-.77-.53-.51-.79-1.24-.79-2.2s.22-1.65.67-2.17c.45-.52,1.08-.77,1.9-.77.77,0,1.37.23,1.79.7.42.46.63,1.14.63,2.03,0,.26-.01.5-.03.73h-4v-.87h3c0-.51-.12-.91-.37-1.18-.24-.27-.58-.41-1.01-.41-.48,0-.86.16-1.12.49-.27.33-.4.79-.4,1.4,0,.66.18,1.16.55,1.5s.89.52,1.57.52c.24,0,.47-.01.7-.04.23-.03.46-.06.7-.11l.14,1c-.34.06-.64.11-.92.12-.28.02-.53.03-.74.03Z"/>
    <path class="cls-2" d="M206.95,119.49v-1h3.8v1h-3.8ZM207.16,114.8v-1h1.9l.11,1h-2.01ZM208.21,119.49v-5.69h.92l.21,1.63v4.06h-1.14ZM209.35,117.04l-.33-1.78h.44c.06-1.05.59-1.57,1.57-1.57.59,0,1.01.17,1.28.5.26.34.4.88.4,1.63h-1.13c0-.42-.06-.71-.19-.9-.12-.18-.32-.27-.6-.27-.48,0-.84.21-1.08.62-.24.41-.36,1-.36,1.76Z"/>
    <path class="cls-2" d="M33.4,132.69v-8.06h1.14v8.06h-1.14ZM36.9,132.69v-3.71c0-.36-.09-.64-.27-.83-.18-.2-.43-.29-.75-.29-.9,0-1.34.54-1.34,1.63l-.33-1.46h.44c.03-.38.17-.67.42-.86.25-.19.61-.28,1.08-.28.6,0,1.07.18,1.4.55s.49.88.49,1.55v3.71h-1.14Z"/>
    <path class="cls-2" d="M41.32,132.8c-.59,0-1.05-.14-1.38-.43-.33-.29-.49-.69-.49-1.21,0-.6.22-1.06.67-1.39s1.08-.48,1.9-.48c.34,0,.64.02.91.06s.5.1.71.19l-.24.77c-.24-.05-.47-.08-.7-.09-.23,0-.46-.01-.7-.01-.99,0-1.48.3-1.48.9,0,.25.08.44.25.58.17.14.41.2.72.2.35,0,.65-.06.89-.18.24-.12.42-.28.53-.47.12-.19.18-.38.18-.58v-.62l.33,1.46h-.45l.18-.17c0,.33-.08.6-.23.82-.15.22-.37.38-.64.49s-.6.16-.98.16ZM43.33,132.75l-.08-1.69-.15-.47v-1.47c0-.38-.13-.66-.4-.83-.27-.18-.66-.27-1.19-.29l-1.36-.04.11-1.01,1.15.02c.94.01,1.64.22,2.1.61.46.39.68.96.68,1.72v2.37l.97.12v.91l-1.83.05Z"/>
    <path class="cls-2" d="M46.29,132.69v-5.69h1.03l.11,1.2v4.49h-1.14ZM49.79,132.69v-3.71c0-.34-.09-.61-.27-.79-.18-.19-.43-.28-.75-.28-.9,0-1.34.53-1.34,1.58l-.33-1.46h.44c.03-.38.17-.67.42-.86.25-.19.61-.28,1.08-.28.6,0,1.07.18,1.4.55s.49.88.49,1.55v3.71h-1.14Z"/>
    <path class="cls-2" d="M54.62,132.8c-.74,0-1.31-.25-1.69-.74-.38-.49-.58-1.21-.58-2.16s.19-1.74.58-2.25c.38-.51.95-.76,1.69-.76.43,0,.77.1,1.04.3.27.2.42.48.47.84h.44l-.33,1.62c0-.59-.12-1.03-.35-1.34-.23-.3-.57-.46-1.02-.46s-.81.17-1.04.52-.35.85-.35,1.53c0,.64.12,1.12.35,1.44.24.33.58.49,1.04.49s.79-.15,1.02-.46c.23-.3.35-.75.35-1.34l.39,1.62h-.49c-.04.36-.19.64-.45.84-.27.2-.62.3-1.06.3ZM56.35,132.75l-.12-1.12v-6.99h1.14v8.06l-1.02.05Z"/>
    <path class="cls-2" d="M58.8,125.64v-1h1.77v1h-1.77ZM62.35,132.8c-.66,0-1.13-.18-1.43-.54-.29-.36-.44-.93-.44-1.72v-5.91h1.14v5.85c0,.3.03.55.09.74.06.19.17.33.34.42.17.09.41.13.74.13.3,0,.68-.07,1.14-.2l.13,1c-.29.08-.57.14-.83.17-.27.04-.55.05-.86.05Z"/>
    <path class="cls-2" d="M68.44,132.8c-.97,0-1.72-.25-2.25-.77-.53-.51-.79-1.24-.79-2.2s.22-1.65.67-2.17c.45-.52,1.08-.77,1.9-.77.77,0,1.37.23,1.79.7.42.46.63,1.14.63,2.03,0,.26-.01.5-.03.73h-4v-.87h3c0-.51-.12-.91-.37-1.18-.24-.27-.58-.41-1.01-.41-.48,0-.86.16-1.12.49-.27.33-.4.79-.4,1.4,0,.66.18,1.16.55,1.5s.89.52,1.57.52c.24,0,.47-.01.7-.04.23-.03.46-.06.7-.11l.14,1c-.34.06-.64.11-.92.12-.28.02-.53.03-.74.03Z"/>
    <path class="cls-2" d="M73.95,132.8c-.43,0-.8-.01-1.1-.04-.31-.02-.59-.07-.84-.12l.13-1.03c.38.06.71.1,1,.13.29.03.56.04.82.04.58,0,.99-.06,1.25-.17.26-.11.39-.29.39-.54,0-.17-.05-.3-.14-.38-.09-.08-.23-.15-.42-.2l-1.31-.33c-.56-.14-.97-.32-1.24-.53-.26-.21-.39-.53-.39-.96,0-.62.24-1.07.72-1.35.48-.28,1.25-.42,2.31-.42.28,0,.53,0,.77.02.24.02.48.04.73.08l-.12.99c-.29-.03-.55-.05-.77-.06-.22-.01-.44-.02-.65-.02-.64,0-1.1.05-1.39.16-.29.11-.43.29-.43.53,0,.16.06.28.18.36.12.07.3.14.54.2l1.05.26c.6.14,1.04.33,1.31.57.28.24.42.59.42,1.05,0,.61-.22,1.06-.67,1.33-.45.28-1.17.42-2.15.42Z"/>
    <path class="cls-2" d="M80.83,132.8c-.22,0-.41-.08-.56-.23-.16-.16-.23-.34-.23-.56s.08-.41.23-.56c.16-.15.34-.23.56-.23s.41.08.56.23c.15.15.23.34.23.56s-.08.41-.23.56c-.15.16-.34.23-.56.23Z"/>
    <path class="cls-2" d="M17.72,143.67c-.29,0-.56-.07-.8-.21-.24-.14-.43-.33-.57-.58-.14-.24-.21-.51-.21-.8s.07-.56.21-.8c.14-.24.33-.43.57-.57.24-.14.51-.21.8-.21s.56.07.8.21c.24.14.43.33.57.57.14.24.21.51.21.8s-.07.56-.21.8c-.14.24-.33.43-.57.58-.24.14-.51.21-.8.21Z"/>
    <path class="cls-2" d="M33.25,145.89v-7.63h1.12v7.63h-1.12ZM34.29,142.99v-1.02h1.58c.43,0,.76-.11,1-.34s.36-.54.36-.95c0-.45-.12-.79-.36-1.03-.24-.24-.57-.36-1-.36h-1.56l-.13-1.02h1.69c.79,0,1.4.2,1.83.6.43.4.65.97.65,1.71s-.22,1.36-.65,1.78c-.43.42-1.04.63-1.83.63h-1.58ZM37.34,145.89l-1.71-3.59h1.18l1.82,3.59h-1.29Z"/>
    <path class="cls-2" d="M42.16,146c-.79,0-1.4-.26-1.84-.77s-.66-1.24-.66-2.18.22-1.67.66-2.18,1.05-.77,1.84-.77,1.4.26,1.84.77c.43.51.65,1.24.65,2.18s-.22,1.67-.65,2.18c-.44.52-1.05.77-1.84.77ZM42.16,144.98c.42,0,.74-.17.97-.5.23-.34.34-.81.34-1.43s-.11-1.1-.34-1.43-.55-.5-.97-.5-.74.17-.97.5-.34.81-.34,1.43.11,1.09.34,1.43c.23.34.55.5.97.5Z"/>
    <path class="cls-2" d="M45.76,141.2v-1h5.16v1h-5.16ZM47.19,143.21v-4.73h1.14v4.73h-1.14ZM49.64,146c-.86,0-1.49-.18-1.87-.54-.38-.36-.58-.93-.58-1.72v-.97h1.14v.91c0,.45.11.78.33.98.22.2.58.31,1.09.31.18,0,.37,0,.57-.03.2-.02.43-.05.69-.08l.13,1c-.25.04-.5.08-.73.1s-.49.03-.76.03Z"/>
    <path class="cls-2" d="M54.21,146c-.59,0-1.05-.14-1.38-.43-.33-.29-.49-.69-.49-1.21,0-.6.22-1.06.67-1.39s1.08-.48,1.9-.48c.34,0,.64.02.91.06s.5.1.71.19l-.24.77c-.24-.05-.47-.08-.7-.09-.23,0-.46-.01-.7-.01-.99,0-1.48.3-1.48.9,0,.25.08.44.25.58.17.14.41.2.72.2.35,0,.65-.06.89-.18.24-.12.42-.28.53-.47.12-.19.18-.38.18-.58v-.62l.33,1.46h-.45l.18-.17c0,.33-.08.6-.23.82-.15.22-.37.38-.64.49s-.6.16-.98.16ZM56.22,145.95l-.08-1.69-.15-.47v-1.47c0-.38-.13-.66-.4-.83-.27-.18-.66-.27-1.19-.29l-1.36-.04.11-1.01,1.15.02c.94.01,1.64.22,2.1.61.46.39.68.96.68,1.72v2.37l.97.12v.91l-1.83.05Z"/>
    <path class="cls-2" d="M58.65,141.2v-1h5.16v1h-5.16ZM60.08,143.21v-4.73h1.14v4.73h-1.14ZM62.53,146c-.86,0-1.49-.18-1.87-.54-.38-.36-.58-.93-.58-1.72v-.97h1.14v.91c0,.45.11.78.33.98.22.2.58.31,1.09.31.18,0,.37,0,.57-.03.2-.02.43-.05.69-.08l.13,1c-.25.04-.5.08-.73.1s-.49.03-.76.03Z"/>
    <path class="cls-2" d="M68.44,146c-.97,0-1.72-.25-2.25-.77-.53-.51-.79-1.24-.79-2.2s.22-1.65.67-2.17c.45-.52,1.08-.77,1.9-.77.77,0,1.37.23,1.79.7.42.46.63,1.14.63,2.03,0,.26-.01.5-.03.73h-4v-.87h3c0-.51-.12-.91-.37-1.18-.24-.27-.58-.41-1.01-.41-.48,0-.86.16-1.12.49-.27.33-.4.79-.4,1.4,0,.66.18,1.16.55,1.5s.89.52,1.57.52c.24,0,.47-.01.7-.04.23-.03.46-.06.7-.11l.14,1c-.34.06-.64.11-.92.12-.28.02-.53.03-.74.03Z"/>
    <path class="cls-2" d="M80.27,146c-.6,0-1.06-.18-1.39-.53-.33-.36-.49-.86-.49-1.51v-3.76h1.14v3.76c0,.33.09.58.28.75.19.18.45.27.78.27.42,0,.73-.13.94-.39.21-.26.32-.71.32-1.32l.29,1.54h-.38c-.09.39-.26.68-.53.89-.26.21-.58.31-.97.31ZM81.85,144.28v-4.08h1.14v3.76l-1.14.32ZM81.95,145.95l-.1-1.36v-1h1.14v1.28l.78.12v.91l-1.83.05Z"/>
    <path class="cls-2" d="M86.84,146c-.43,0-.8-.01-1.1-.04-.31-.02-.59-.07-.84-.12l.13-1.03c.38.06.71.1,1,.13.29.03.56.04.82.04.58,0,.99-.06,1.25-.17.26-.11.39-.29.39-.54,0-.17-.05-.3-.14-.38-.09-.08-.23-.15-.42-.2l-1.31-.33c-.56-.14-.97-.32-1.24-.53-.26-.21-.39-.53-.39-.96,0-.62.24-1.07.72-1.35.48-.28,1.25-.42,2.31-.42.28,0,.53,0,.77.02.24.02.48.04.73.08l-.12.99c-.29-.03-.55-.05-.77-.06-.22-.01-.44-.02-.65-.02-.64,0-1.1.05-1.39.16-.29.11-.43.29-.43.53,0,.16.06.28.18.36.12.07.3.14.54.2l1.05.26c.6.14,1.04.33,1.31.57.28.24.42.59.42,1.05,0,.61-.22,1.06-.67,1.33-.45.28-1.17.42-2.15.42Z"/>
    <path class="cls-2" d="M91.36,145.89v-1h2.28v1h-2.28ZM91.68,141.2v-1h2.99v1h-2.99ZM94.06,139.3c-.22,0-.41-.08-.56-.23s-.23-.34-.23-.56.08-.41.23-.56c.16-.15.34-.23.56-.23s.41.08.56.23c.15.15.23.34.23.56s-.08.41-.23.56c-.15.16-.34.23-.56.23ZM93.53,145.89v-5.37h1.14v5.37h-1.14ZM94.56,145.89v-1h1.86v1h-1.86Z"/>
    <path class="cls-2" d="M97.85,145.89v-5.69h1.03l.11,1.2v4.49h-1.14ZM101.35,145.89v-3.71c0-.34-.09-.61-.27-.79-.18-.19-.43-.28-.75-.28-.9,0-1.34.53-1.34,1.58l-.33-1.46h.44c.03-.38.17-.67.42-.86.25-.19.61-.28,1.08-.28.6,0,1.07.18,1.4.55s.49.88.49,1.55v3.71h-1.14Z"/>
    <path class="cls-2" d="M106.18,146c-.74,0-1.31-.25-1.69-.74-.38-.49-.58-1.21-.58-2.16s.19-1.74.58-2.25c.38-.51.95-.76,1.69-.76.44,0,.8.1,1.08.3.28.2.44.48.48.84h.44l-.39,1.62c0-.59-.12-1.03-.35-1.34-.23-.3-.57-.46-1.02-.46s-.81.17-1.04.52-.35.85-.35,1.53c0,.64.12,1.12.35,1.44.24.33.58.49,1.04.49s.79-.15,1.02-.46c.23-.3.35-.75.35-1.34l.39,1.62h-.49c-.04.36-.19.64-.45.84-.27.2-.62.3-1.06.3ZM104.37,148.46l-.05-1.04,1.83-.05c.58-.02,1-.18,1.26-.48s.39-.74.4-1.33v-4.16l.11-1.2h1.03v5.19c0,1.01-.23,1.76-.69,2.25-.46.48-1.2.74-2.21.77l-1.67.05Z"/>
    <path class="cls-2" d="M116.66,141.2v-1h5.16v1h-5.16ZM118.09,143.21v-4.73h1.14v4.73h-1.14ZM120.54,146c-.86,0-1.49-.18-1.87-.54-.38-.36-.58-.93-.58-1.72v-.97h1.14v.91c0,.45.11.78.33.98.22.2.58.31,1.09.31.18,0,.37,0,.57-.03.2-.02.43-.05.69-.08l.13,1c-.25.04-.5.08-.73.1s-.49.03-.76.03Z"/>
    <path class="cls-2" d="M123.63,145.89v-8.06h1.14v8.06h-1.14ZM127.13,145.89v-3.71c0-.36-.09-.64-.27-.83-.18-.2-.43-.29-.75-.29-.9,0-1.34.54-1.34,1.63l-.33-1.46h.44c.03-.38.17-.67.42-.86.25-.19.61-.28,1.08-.28.6,0,1.07.18,1.4.55s.49.88.49,1.55v3.71h-1.14Z"/>
    <path class="cls-2" d="M132.89,146c-.97,0-1.72-.25-2.25-.77-.53-.51-.79-1.24-.79-2.2s.22-1.65.67-2.17c.45-.52,1.08-.77,1.9-.77.77,0,1.37.23,1.79.7.42.46.63,1.14.63,2.03,0,.26-.01.5-.03.73h-4v-.87h3c0-.51-.12-.91-.37-1.18-.24-.27-.58-.41-1.01-.41-.48,0-.86.16-1.12.49-.27.33-.4.79-.4,1.4,0,.66.18,1.16.55,1.5s.89.52,1.57.52c.24,0,.47-.01.7-.04.23-.03.46-.06.7-.11l.14,1c-.34.06-.64.11-.92.12-.28.02-.53.03-.74.03Z"/>
    <path class="cls-2" d="M142.44,141.2v-1h5.16v1h-5.16ZM143.87,143.21v-4.73h1.14v4.73h-1.14ZM146.32,146c-.86,0-1.49-.18-1.87-.54-.38-.36-.58-.93-.58-1.72v-.97h1.14v.91c0,.45.11.78.33.98.22.2.58.31,1.09.31.18,0,.37,0,.57-.03.2-.02.43-.05.69-.08l.13,1c-.25.04-.5.08-.73.1s-.49.03-.76.03Z"/>
    <path class="cls-2" d="M151.73,146c-.79,0-1.4-.26-1.84-.77s-.66-1.24-.66-2.18.22-1.67.66-2.18,1.05-.77,1.84-.77,1.4.26,1.84.77c.43.51.65,1.24.65,2.18s-.22,1.67-.65,2.18c-.44.52-1.05.77-1.84.77ZM151.73,144.98c.42,0,.74-.17.97-.5.23-.34.34-.81.34-1.43s-.11-1.1-.34-1.43-.55-.5-.97-.5-.74.17-.97.5-.34.81-.34,1.43.11,1.09.34,1.43c.23.34.55.5.97.5Z"/>
    <path class="cls-2" d="M155.86,148.37v-8.16h1.03l.11,1.2v6.96h-1.14ZM158.61,146c-.44,0-.79-.1-1.06-.3-.27-.2-.42-.48-.45-.84h-.49l.39-1.62c0,.59.12,1.03.35,1.34.23.3.57.46,1.02.46s.81-.16,1.04-.49c.24-.33.35-.81.35-1.44,0-.67-.12-1.18-.35-1.53s-.58-.52-1.04-.52-.79.15-1.02.46c-.23.3-.35.75-.35,1.34l-.39-1.62h.44c.05-.36.21-.64.49-.84.27-.2.63-.3,1.08-.3.75,0,1.31.25,1.7.76.38.51.57,1.26.57,2.25s-.19,1.67-.57,2.16c-.38.49-.95.74-1.7.74Z"/>
    <path class="cls-2" d="M171.62,146c-.97,0-1.72-.25-2.25-.77-.53-.51-.79-1.24-.79-2.2s.25-1.65.75-2.17c.5-.52,1.21-.77,2.14-.77.55,0,1.03.1,1.43.31s.68.5.85.87l-.88.66c-.16-.26-.37-.46-.62-.61-.25-.14-.52-.21-.82-.21-.54,0-.95.16-1.25.49-.3.32-.45.78-.45,1.38,0,.65.17,1.14.52,1.49.35.34.85.51,1.5.51.26,0,.53-.01.79-.04.26-.02.52-.06.77-.1l.13,1c-.29.06-.6.11-.91.13s-.62.03-.92.03Z"/>
    <path class="cls-2" d="M175.15,145.89v-1h2.28v1h-2.28ZM175.47,141.2v-1h2.99v1h-2.99ZM177.85,139.3c-.22,0-.41-.08-.56-.23s-.23-.34-.23-.56.08-.41.23-.56c.16-.15.34-.23.56-.23s.41.08.56.23c.15.15.23.34.23.56s-.08.41-.23.56c-.15.16-.34.23-.56.23ZM177.32,145.89v-5.37h1.14v5.37h-1.14ZM178.35,145.89v-1h1.86v1h-1.86Z"/>
    <path class="cls-2" d="M181.17,145.89v-1h3.8v1h-3.8ZM181.38,141.2v-1h1.9l.11,1h-2.01ZM182.43,145.89v-5.69h.92l.21,1.63v4.06h-1.14ZM183.57,143.45l-.33-1.78h.44c.06-1.05.59-1.57,1.57-1.57.59,0,1.01.17,1.28.5.26.34.4.88.4,1.63h-1.13c0-.42-.06-.71-.19-.9-.12-.18-.32-.27-.6-.27-.48,0-.84.21-1.08.62-.24.41-.36,1-.36,1.76Z"/>
    <path class="cls-2" d="M190.95,146c-.97,0-1.72-.25-2.25-.77-.53-.51-.79-1.24-.79-2.2s.25-1.65.75-2.17c.5-.52,1.21-.77,2.14-.77.55,0,1.03.1,1.43.31s.68.5.85.87l-.88.66c-.16-.26-.37-.46-.62-.61-.25-.14-.52-.21-.82-.21-.54,0-.95.16-1.25.49-.3.32-.45.78-.45,1.38,0,.65.17,1.14.52,1.49.35.34.85.51,1.5.51.26,0,.53-.01.79-.04.26-.02.52-.06.77-.1l.13,1c-.29.06-.6.11-.91.13s-.62.03-.92.03Z"/>
    <path class="cls-2" d="M196.29,146c-.6,0-1.06-.18-1.39-.53-.33-.36-.49-.86-.49-1.51v-3.76h1.14v3.76c0,.33.09.58.28.75.19.18.45.27.78.27.42,0,.73-.13.94-.39.21-.26.32-.71.32-1.32l.29,1.54h-.38c-.09.39-.26.68-.53.89-.26.21-.58.31-.97.31ZM197.87,144.28v-4.08h1.14v3.76l-1.14.32ZM197.97,145.95l-.1-1.36v-1h1.14v1.28l.78.12v.91l-1.83.05Z"/>
    <path class="cls-2" d="M200.6,138.84v-1h1.77v1h-1.77ZM204.14,146c-.66,0-1.13-.18-1.43-.54-.29-.36-.44-.93-.44-1.72v-5.91h1.14v5.85c0,.3.03.55.09.74.06.19.17.33.34.42.17.09.41.13.74.13.3,0,.68-.07,1.14-.2l.13,1c-.29.08-.57.14-.83.17-.27.04-.55.05-.86.05Z"/>
    <path class="cls-2" d="M208.9,146c-.59,0-1.05-.14-1.38-.43-.33-.29-.49-.69-.49-1.21,0-.6.22-1.06.67-1.39s1.08-.48,1.9-.48c.34,0,.64.02.91.06s.5.1.71.19l-.24.77c-.24-.05-.47-.08-.7-.09-.23,0-.46-.01-.7-.01-.99,0-1.48.3-1.48.9,0,.25.08.44.25.58.17.14.41.2.72.2.35,0,.65-.06.89-.18.24-.12.42-.28.53-.47.12-.19.18-.38.18-.58v-.62l.33,1.46h-.45l.18-.17c0,.33-.08.6-.23.82-.15.22-.37.38-.64.49s-.6.16-.98.16ZM210.91,145.95l-.08-1.69-.15-.47v-1.47c0-.38-.13-.66-.4-.83-.27-.18-.66-.27-1.19-.29l-1.36-.04.11-1.01,1.15.02c.94.01,1.64.22,2.1.61.46.39.68.96.68,1.72v2.37l.97.12v.91l-1.83.05Z"/>
    <path class="cls-2" d="M213.39,145.89v-1h3.8v1h-3.8ZM213.61,141.2v-1h1.9l.11,1h-2.01ZM214.66,145.89v-5.69h.92l.21,1.63v4.06h-1.14ZM215.8,143.45l-.33-1.78h.44c.06-1.05.59-1.57,1.57-1.57.59,0,1.01.17,1.28.5.26.34.4.88.4,1.63h-1.13c0-.42-.06-.71-.19-.9-.12-.18-.32-.27-.6-.27-.48,0-.84.21-1.08.62-.24.41-.36,1-.36,1.76Z"/>
    <path class="cls-2" d="M32.92,159.09v-1h3.8v1h-3.8ZM33.14,154.4v-1h1.9l.11,1h-2.01ZM34.19,159.09v-5.69h.92l.21,1.63v4.06h-1.14ZM35.33,156.64l-.33-1.78h.44c.06-1.04.59-1.57,1.57-1.57.59,0,1.01.17,1.28.5.26.34.4.88.4,1.63h-1.13c0-.42-.06-.71-.19-.9-.12-.18-.32-.27-.6-.27-.48,0-.84.21-1.08.62-.24.41-.36,1-.36,1.76Z"/>
    <path class="cls-2" d="M42.16,159.2c-.79,0-1.4-.26-1.84-.77s-.66-1.24-.66-2.18.22-1.67.66-2.18c.44-.51,1.05-.77,1.84-.77s1.4.26,1.84.77c.43.51.65,1.24.65,2.18s-.22,1.67-.65,2.18c-.44.52-1.05.77-1.84.77ZM42.16,158.18c.42,0,.74-.17.97-.5.23-.34.34-.81.34-1.43s-.11-1.1-.34-1.43c-.23-.33-.55-.5-.97-.5s-.74.17-.97.5c-.23.33-.34.81-.34,1.43s.11,1.09.34,1.43c.23.34.55.5.97.5Z"/>
    <path class="cls-2" d="M45.76,154.4v-1h5.16v1h-5.16ZM47.19,156.41v-4.73h1.14v4.73h-1.14ZM49.64,159.2c-.86,0-1.49-.18-1.87-.54-.38-.36-.58-.93-.58-1.72v-.97h1.14v.91c0,.45.11.78.33.98.22.2.58.31,1.09.31.18,0,.37,0,.57-.03s.43-.05.69-.08l.13,1c-.25.04-.5.08-.73.1s-.49.03-.76.03Z"/>
    <path class="cls-2" d="M54.21,159.2c-.59,0-1.05-.14-1.38-.43-.33-.29-.49-.69-.49-1.21,0-.6.22-1.06.67-1.39s1.08-.48,1.9-.48c.34,0,.64.02.91.06.27.04.5.1.71.19l-.24.77c-.24-.05-.47-.08-.7-.09-.23,0-.46-.01-.7-.01-.99,0-1.48.3-1.48.9,0,.25.08.44.25.58.17.14.41.2.72.2.35,0,.65-.06.89-.18.24-.12.42-.28.53-.47.12-.19.18-.38.18-.59v-.62l.33,1.46h-.45l.18-.17c0,.33-.08.6-.23.82-.15.22-.37.39-.64.49-.28.11-.6.16-.98.16ZM56.22,159.15l-.08-1.69-.15-.47v-1.47c0-.38-.13-.66-.4-.83-.27-.18-.66-.27-1.19-.29l-1.36-.04.11-1.01,1.15.02c.94.01,1.64.22,2.1.61.46.39.68.96.68,1.72v2.37l.97.12v.91l-1.83.05Z"/>
    <path class="cls-2" d="M58.65,154.4v-1h5.16v1h-5.16ZM60.08,156.41v-4.73h1.14v4.73h-1.14ZM62.53,159.2c-.86,0-1.49-.18-1.87-.54-.38-.36-.58-.93-.58-1.72v-.97h1.14v.91c0,.45.11.78.33.98.22.2.58.31,1.09.31.18,0,.37,0,.57-.03s.43-.05.69-.08l.13,1c-.25.04-.5.08-.73.1s-.49.03-.76.03Z"/>
    <path class="cls-2" d="M68.44,159.2c-.97,0-1.72-.25-2.25-.77-.53-.51-.79-1.24-.79-2.2s.22-1.65.67-2.17c.45-.52,1.08-.77,1.9-.77.77,0,1.37.23,1.79.7.42.47.63,1.14.63,2.03,0,.26-.01.5-.03.73h-4v-.87h3c0-.51-.12-.91-.37-1.18-.24-.27-.58-.41-1.01-.41-.48,0-.86.17-1.12.49-.27.33-.4.79-.4,1.4,0,.66.18,1.16.55,1.5s.89.52,1.57.52c.24,0,.47-.01.7-.04.23-.03.46-.06.7-.11l.14,1c-.34.06-.64.11-.92.12-.28.02-.53.03-.74.03Z"/>
    <path class="cls-2" d="M78.51,159.09v-8.06h1.14v8.06h-1.14ZM82.01,159.09v-3.71c0-.36-.09-.64-.27-.83s-.43-.29-.75-.29c-.9,0-1.34.54-1.34,1.63l-.33-1.46h.44c.03-.38.17-.67.42-.86.25-.19.61-.28,1.08-.28.6,0,1.07.18,1.4.55s.49.88.49,1.55v3.71h-1.14Z"/>
    <path class="cls-2" d="M86.44,159.2c-.59,0-1.05-.14-1.38-.43-.33-.29-.49-.69-.49-1.21,0-.6.22-1.06.67-1.39s1.08-.48,1.9-.48c.34,0,.64.02.91.06.27.04.5.1.71.19l-.24.77c-.24-.05-.47-.08-.7-.09-.23,0-.46-.01-.7-.01-.99,0-1.48.3-1.48.9,0,.25.08.44.25.58.17.14.41.2.72.2.35,0,.65-.06.89-.18.24-.12.42-.28.53-.47.12-.19.18-.38.18-.59v-.62l.33,1.46h-.45l.18-.17c0,.33-.08.6-.23.82-.15.22-.37.39-.64.49-.28.11-.6.16-.98.16ZM88.45,159.15l-.08-1.69-.15-.47v-1.47c0-.38-.13-.66-.4-.83-.27-.18-.66-.27-1.19-.29l-1.36-.04.11-1.01,1.15.02c.94.01,1.64.22,2.1.61.46.39.68.96.68,1.72v2.37l.97.12v.91l-1.83.05Z"/>
    <path class="cls-2" d="M91.4,159.09v-5.69h1.03l.11,1.2v4.49h-1.14ZM94.91,159.09v-3.71c0-.34-.09-.61-.27-.79-.18-.19-.43-.28-.75-.28-.9,0-1.34.53-1.34,1.58l-.33-1.46h.44c.03-.38.17-.67.42-.86.25-.19.61-.28,1.08-.28.6,0,1.07.18,1.4.55s.49.88.49,1.55v3.71h-1.14Z"/>
    <path class="cls-2" d="M99.73,159.2c-.74,0-1.31-.25-1.69-.74-.38-.49-.58-1.21-.58-2.17s.19-1.74.58-2.25c.38-.51.95-.76,1.69-.76.43,0,.77.1,1.04.3.27.2.42.48.47.84h.44l-.33,1.62c0-.59-.12-1.03-.35-1.34-.23-.3-.57-.46-1.02-.46s-.81.17-1.04.52-.35.85-.35,1.53c0,.64.12,1.12.35,1.45.24.33.58.49,1.04.49s.79-.15,1.02-.46c.23-.3.35-.75.35-1.34l.39,1.62h-.49c-.04.36-.19.64-.45.84-.27.2-.62.3-1.06.3ZM101.47,159.15l-.12-1.12v-6.99h1.14v8.06l-1.02.05Z"/>
    <path class="cls-2" d="M103.92,152.04v-1h1.77v1h-1.77ZM107.46,159.2c-.66,0-1.13-.18-1.43-.54-.29-.36-.44-.93-.44-1.72v-5.91h1.14v5.85c0,.3.03.55.09.74.06.19.17.33.34.42.17.09.41.13.74.13.3,0,.68-.07,1.14-.2l.13,1c-.29.08-.57.14-.83.17-.27.04-.55.05-.86.05Z"/>
    <path class="cls-2" d="M113.55,159.2c-.97,0-1.72-.25-2.25-.77-.53-.51-.79-1.24-.79-2.2s.22-1.65.67-2.17c.45-.52,1.08-.77,1.9-.77.77,0,1.37.23,1.79.7.42.47.63,1.14.63,2.03,0,.26-.01.5-.03.73h-4v-.87h3c0-.51-.12-.91-.37-1.18-.24-.27-.58-.41-1.01-.41-.48,0-.86.17-1.12.49-.27.33-.4.79-.4,1.4,0,.66.18,1.16.55,1.5s.89.52,1.57.52c.24,0,.47-.01.7-.04.23-.03.46-.06.7-.11l.14,1c-.34.06-.64.11-.92.12-.28.02-.53.03-.74.03Z"/>
    <path class="cls-2" d="M127.83,160.17c-1.16,0-2.07-.43-2.71-1.29s-.96-2.07-.96-3.63.32-2.74.96-3.58,1.55-1.27,2.71-1.27h.26v.97h-.15c-.85,0-1.5.34-1.96,1.02-.46.68-.69,1.64-.69,2.87s.23,2.23.69,2.92c.46.69,1.11,1.04,1.96,1.04h.15v.97h-.26Z"/>
    <path class="cls-2" d="M131.96,159.2c-.74,0-1.31-.25-1.69-.74-.38-.49-.58-1.21-.58-2.17s.19-1.74.58-2.25c.38-.51.95-.76,1.69-.76.43,0,.77.1,1.04.3.27.2.42.48.47.84h.44l-.33,1.62c0-.59-.12-1.03-.35-1.34-.23-.3-.57-.46-1.02-.46s-.81.17-1.04.52-.35.85-.35,1.53c0,.64.12,1.12.35,1.45.24.33.58.49,1.04.49s.79-.15,1.02-.46c.23-.3.35-.75.35-1.34l.39,1.62h-.49c-.04.36-.19.64-.45.84-.27.2-.62.3-1.06.3ZM133.7,159.15l-.12-1.12v-6.99h1.14v8.06l-1.02.05Z"/>
    <path class="cls-2" d="M136.05,159.09v-1h3.8v1h-3.8ZM136.26,154.4v-1h1.9l.11,1h-2.01ZM137.32,159.09v-5.69h.92l.21,1.63v4.06h-1.14ZM138.45,156.64l-.33-1.78h.44c.06-1.04.59-1.57,1.57-1.57.59,0,1.01.17,1.28.5.26.34.4.88.4,1.63h-1.13c0-.42-.06-.71-.19-.9-.12-.18-.32-.27-.6-.27-.48,0-.84.21-1.08.62-.24.41-.36,1-.36,1.76Z"/>
    <path class="cls-2" d="M144.45,159.2c-.59,0-1.05-.14-1.38-.43-.33-.29-.49-.69-.49-1.21,0-.6.22-1.06.67-1.39s1.08-.48,1.9-.48c.34,0,.64.02.91.06.27.04.5.1.71.19l-.24.77c-.24-.05-.47-.08-.7-.09-.23,0-.46-.01-.7-.01-.99,0-1.48.3-1.48.9,0,.25.08.44.25.58.17.14.41.2.72.2.35,0,.65-.06.89-.18.24-.12.42-.28.53-.47.12-.19.18-.38.18-.59v-.62l.33,1.46h-.45l.18-.17c0,.33-.08.6-.23.82-.15.22-.37.39-.64.49-.28.11-.6.16-.98.16ZM146.46,159.15l-.08-1.69-.15-.47v-1.47c0-.38-.13-.66-.4-.83-.27-.18-.66-.27-1.19-.29l-1.36-.04.11-1.01,1.15.02c.94.01,1.64.22,2.1.61.46.39.68.96.68,1.72v2.37l.97.12v.91l-1.83.05Z"/>
    <path class="cls-2" d="M151.3,159.2c-.74,0-1.31-.25-1.69-.74-.38-.49-.58-1.21-.58-2.17s.19-1.74.58-2.25c.38-.51.95-.76,1.69-.76.44,0,.8.1,1.08.3.28.2.44.48.48.84h.44l-.39,1.62c0-.59-.12-1.03-.35-1.34-.23-.3-.57-.46-1.02-.46s-.81.17-1.04.52-.35.85-.35,1.53c0,.64.12,1.12.35,1.45.24.33.58.49,1.04.49s.79-.15,1.02-.46c.23-.3.35-.75.35-1.34l.39,1.62h-.49c-.04.36-.19.64-.45.84-.27.2-.62.3-1.06.3ZM149.49,161.66l-.05-1.04,1.83-.05c.58-.02,1-.18,1.26-.48s.39-.74.4-1.33v-4.16l.11-1.2h1.03v5.19c0,1.01-.23,1.76-.69,2.25-.46.48-1.2.74-2.21.77l-1.67.05Z"/>
    <path class="cls-2" d="M162.26,159.09v-1h2.28v1h-2.28ZM162.58,154.4v-1h2.99v1h-2.99ZM164.96,152.5c-.22,0-.41-.08-.56-.23s-.23-.34-.23-.56.08-.41.23-.56c.16-.15.34-.23.56-.23s.41.08.56.23c.15.15.23.34.23.56s-.08.41-.23.56c-.15.16-.34.23-.56.23ZM164.43,159.09v-5.37h1.14v5.37h-1.14ZM165.46,159.09v-1h1.86v1h-1.86Z"/>
    <path class="cls-2" d="M168.22,154.4v-1h5.16v1h-5.16ZM169.65,156.41v-4.73h1.14v4.73h-1.14ZM172.1,159.2c-.86,0-1.49-.18-1.87-.54-.38-.36-.58-.93-.58-1.72v-.97h1.14v.91c0,.45.11.78.33.98.22.2.58.31,1.09.31.18,0,.37,0,.57-.03s.43-.05.69-.08l.13,1c-.25.04-.5.08-.73.1s-.49.03-.76.03Z"/>
    <path class="cls-2" d="M183.12,159.2c-.59,0-1.05-.14-1.38-.43-.33-.29-.49-.69-.49-1.21,0-.6.22-1.06.67-1.39s1.08-.48,1.9-.48c.34,0,.64.02.91.06.27.04.5.1.71.19l-.24.77c-.24-.05-.47-.08-.7-.09-.23,0-.46-.01-.7-.01-.99,0-1.48.3-1.48.9,0,.25.08.44.25.58.17.14.41.2.72.2.35,0,.65-.06.89-.18.24-.12.42-.28.53-.47.12-.19.18-.38.18-.59v-.62l.33,1.46h-.45l.18-.17c0,.33-.08.6-.23.82-.15.22-.37.39-.64.49-.28.11-.6.16-.98.16ZM185.13,159.15l-.08-1.69-.15-.47v-1.47c0-.38-.13-.66-.4-.83-.27-.18-.66-.27-1.19-.29l-1.36-.04.11-1.01,1.15.02c.94.01,1.64.22,2.1.61.46.39.68.96.68,1.72v2.37l.97.12v.91l-1.83.05Z"/>
    <path class="cls-2" d="M187.61,159.09v-1h3.8v1h-3.8ZM187.83,154.4v-1h1.9l.11,1h-2.01ZM188.88,159.09v-5.69h.92l.21,1.63v4.06h-1.14ZM190.02,156.64l-.33-1.78h.44c.06-1.04.59-1.57,1.57-1.57.59,0,1.01.17,1.28.5.26.34.4.88.4,1.63h-1.13c0-.42-.06-.71-.19-.9-.12-.18-.32-.27-.6-.27-.48,0-.84.21-1.08.62-.24.41-.36,1-.36,1.76Z"/>
    <path class="cls-2" d="M196.85,159.2c-.79,0-1.4-.26-1.84-.77s-.66-1.24-.66-2.18.22-1.67.66-2.18c.44-.51,1.05-.77,1.84-.77s1.4.26,1.84.77c.43.51.65,1.24.65,2.18s-.22,1.67-.65,2.18c-.44.52-1.05.77-1.84.77ZM196.85,158.18c.42,0,.74-.17.97-.5.23-.34.34-.81.34-1.43s-.11-1.1-.34-1.43c-.23-.33-.55-.5-.97-.5s-.74.17-.97.5c-.23.33-.34.81-.34,1.43s.11,1.09.34,1.43c.23.34.55.5.97.5Z"/>
    <path class="cls-2" d="M202.74,159.2c-.6,0-1.06-.18-1.39-.53-.33-.36-.49-.86-.49-1.51v-3.76h1.14v3.76c0,.33.09.58.28.75.19.18.45.27.78.27.42,0,.73-.13.94-.39.21-.26.32-.7.32-1.32l.29,1.54h-.38c-.09.39-.26.68-.53.89-.26.21-.58.31-.97.31ZM204.31,157.48v-4.08h1.14v3.76l-1.14.32ZM204.41,159.15l-.1-1.36v-1h1.14v1.28l.78.12v.91l-1.83.05Z"/>
    <path class="cls-2" d="M207.42,159.09v-5.69h1.03l.11,1.2v4.49h-1.14ZM210.92,159.09v-3.71c0-.34-.09-.61-.27-.79-.18-.19-.43-.28-.75-.28-.9,0-1.34.53-1.34,1.58l-.33-1.46h.44c.03-.38.17-.67.42-.86.25-.19.61-.28,1.08-.28.6,0,1.07.18,1.4.55s.49.88.49,1.55v3.71h-1.14Z"/>
    <path class="cls-2" d="M215.75,159.2c-.74,0-1.31-.25-1.69-.74-.38-.49-.58-1.21-.58-2.17s.19-1.74.58-2.25c.38-.51.95-.76,1.69-.76.43,0,.77.1,1.04.3.27.2.42.48.47.84h.44l-.33,1.62c0-.59-.12-1.03-.35-1.34-.23-.3-.57-.46-1.02-.46s-.81.17-1.04.52-.35.85-.35,1.53c0,.64.12,1.12.35,1.45.24.33.58.49,1.04.49s.79-.15,1.02-.46c.23-.3.35-.75.35-1.34l.39,1.62h-.49c-.04.36-.19.64-.45.84-.27.2-.62.3-1.06.3ZM217.48,159.15l-.12-1.12v-6.99h1.14v8.06l-1.02.05Z"/>
    <path class="cls-2" d="M32.87,167.6v-1h5.16v1h-5.16ZM34.3,169.61v-4.73h1.14v4.73h-1.14ZM36.75,172.4c-.86,0-1.49-.18-1.87-.54-.38-.36-.58-.93-.58-1.72v-.97h1.14v.91c0,.45.11.78.33.98.22.2.58.31,1.09.31.18,0,.37,0,.57-.03s.43-.05.69-.08l.13,1c-.25.04-.5.08-.73.1s-.49.03-.76.03Z"/>
    <path class="cls-2" d="M39.84,172.29v-8.06h1.14v8.06h-1.14ZM43.34,172.29v-3.71c0-.36-.09-.64-.27-.83s-.43-.29-.75-.29c-.9,0-1.34.54-1.34,1.63l-.33-1.46h.44c.03-.38.17-.67.42-.86.25-.19.61-.28,1.08-.28.6,0,1.07.18,1.4.55s.49.88.49,1.55v3.71h-1.14Z"/>
    <path class="cls-2" d="M49.1,172.4c-.97,0-1.72-.25-2.25-.77-.53-.51-.79-1.24-.79-2.2s.22-1.65.67-2.17c.45-.52,1.08-.77,1.9-.77.77,0,1.37.23,1.79.7.42.47.63,1.14.63,2.03,0,.26-.01.5-.03.73h-4v-.87h3c0-.51-.12-.91-.37-1.18-.24-.27-.58-.41-1.01-.41-.48,0-.86.17-1.12.49-.27.33-.4.79-.4,1.4,0,.66.18,1.16.55,1.5s.89.52,1.57.52c.24,0,.47-.01.7-.04.23-.03.46-.06.7-.11l.14,1c-.34.06-.64.11-.92.12-.28.02-.53.03-.74.03Z"/>
    <path class="cls-2" d="M62.04,172.4c-.97,0-1.72-.25-2.25-.77-.53-.51-.79-1.24-.79-2.2s.25-1.65.75-2.17c.5-.52,1.21-.77,2.14-.77.55,0,1.03.1,1.43.31.4.21.68.5.85.87l-.88.66c-.16-.26-.37-.46-.62-.61-.25-.14-.52-.21-.82-.21-.54,0-.95.16-1.25.49-.3.32-.45.79-.45,1.38,0,.65.17,1.14.52,1.49.35.34.85.51,1.5.51.26,0,.53-.01.79-.04.26-.03.52-.06.77-.1l.13,1c-.29.06-.6.11-.91.13s-.62.03-.92.03Z"/>
    <path class="cls-2" d="M68.44,172.4c-.97,0-1.72-.25-2.25-.77-.53-.51-.79-1.24-.79-2.2s.22-1.65.67-2.17c.45-.52,1.08-.77,1.9-.77.77,0,1.37.23,1.79.7.42.47.63,1.14.63,2.03,0,.26-.01.5-.03.73h-4v-.87h3c0-.51-.12-.91-.37-1.18-.24-.27-.58-.41-1.01-.41-.48,0-.86.17-1.12.49-.27.33-.4.79-.4,1.4,0,.66.18,1.16.55,1.5s.89.52,1.57.52c.24,0,.47-.01.7-.04.23-.03.46-.06.7-.11l.14,1c-.34.06-.64.11-.92.12-.28.02-.53.03-.74.03Z"/>
    <path class="cls-2" d="M72.07,172.29v-5.69h1.03l.11,1.2v4.49h-1.14ZM75.57,172.29v-3.71c0-.34-.09-.61-.27-.79-.18-.19-.43-.28-.75-.28-.9,0-1.34.53-1.34,1.58l-.33-1.46h.44c.03-.38.17-.67.42-.86.25-.19.61-.28,1.08-.28.6,0,1.07.18,1.4.55s.49.88.49,1.55v3.71h-1.14Z"/>
    <path class="cls-2" d="M77.99,167.6v-1h5.16v1h-5.16ZM79.42,169.61v-4.73h1.14v4.73h-1.14ZM81.86,172.4c-.86,0-1.49-.18-1.87-.54-.38-.36-.58-.93-.58-1.72v-.97h1.14v.91c0,.45.11.78.33.98.22.2.58.31,1.09.31.18,0,.37,0,.57-.03s.43-.05.69-.08l.13,1c-.25.04-.5.08-.73.1s-.49.03-.76.03Z"/>
    <path class="cls-2" d="M87.77,172.4c-.97,0-1.72-.25-2.25-.77-.53-.51-.79-1.24-.79-2.2s.22-1.65.67-2.17c.45-.52,1.08-.77,1.9-.77.77,0,1.37.23,1.79.7.42.47.63,1.14.63,2.03,0,.26-.01.5-.03.73h-4v-.87h3c0-.51-.12-.91-.37-1.18-.24-.27-.58-.41-1.01-.41-.48,0-.86.17-1.12.49-.27.33-.4.79-.4,1.4,0,.66.18,1.16.55,1.5s.89.52,1.57.52c.24,0,.47-.01.7-.04.23-.03.46-.06.7-.11l.14,1c-.34.06-.64.11-.92.12-.28.02-.53.03-.74.03Z"/>
    <path class="cls-2" d="M90.93,172.29v-1h3.8v1h-3.8ZM91.15,167.6v-1h1.9l.11,1h-2.01ZM92.2,172.29v-5.69h.92l.21,1.63v4.06h-1.14ZM93.34,169.84l-.33-1.78h.44c.06-1.04.59-1.57,1.57-1.57.59,0,1.01.17,1.28.5.26.34.4.88.4,1.63h-1.13c0-.42-.06-.71-.19-.9-.12-.18-.32-.27-.6-.27-.48,0-.84.21-1.08.62-.24.41-.36,1-.36,1.76Z"/>
    <path class="cls-2" d="M98.03,173.37v-.97h.15c.85,0,1.5-.35,1.96-1.04.46-.69.69-1.66.69-2.92s-.23-2.19-.69-2.87c-.46-.68-1.11-1.02-1.96-1.02h-.15v-.97h.26c1.17,0,2.07.42,2.71,1.27.64.85.96,2.04.96,3.58s-.32,2.78-.96,3.63c-.64.86-1.54,1.29-2.71,1.29h-.26Z"/>
    <path class="cls-2" d="M106.61,172.4c-.22,0-.41-.08-.56-.23-.16-.16-.23-.34-.23-.56s.08-.41.23-.56c.16-.15.34-.23.56-.23s.41.08.56.23.23.34.23.56-.08.41-.23.56c-.15.16-.34.23-.56.23Z"/>
    <path class="cls-2" d="M17.72,183.27c-.29,0-.56-.07-.8-.21-.24-.14-.43-.33-.57-.58-.14-.24-.21-.51-.21-.8s.07-.56.21-.8c.14-.24.33-.43.57-.57.24-.14.51-.21.8-.21s.56.07.8.21c.24.14.43.33.57.57.14.24.21.51.21.8s-.07.56-.21.8c-.14.24-.33.43-.57.58-.24.14-.51.21-.8.21Z"/>
    <path class="cls-2" d="M33.25,185.49v-7.63h1.12v7.63h-1.12ZM34.29,185.49v-1.02h.81c.78,0,1.37-.22,1.77-.67.4-.45.59-1.12.59-2.01,0-.97-.2-1.7-.59-2.18-.4-.48-.99-.72-1.77-.72h-.78l-.13-1.02h.91c2.33,0,3.49,1.31,3.49,3.92,0,2.47-1.16,3.71-3.49,3.71h-.81Z"/>
    <path class="cls-2" d="M42.66,185.6c-.97,0-1.72-.25-2.25-.77-.53-.51-.79-1.24-.79-2.2s.22-1.65.67-2.17c.45-.52,1.08-.77,1.9-.77.77,0,1.37.23,1.79.7.42.46.63,1.14.63,2.03,0,.26-.01.5-.03.73h-4v-.87h3c0-.51-.12-.91-.37-1.18-.24-.27-.58-.41-1.01-.41-.48,0-.86.16-1.12.49-.27.33-.4.79-.4,1.4,0,.66.18,1.16.55,1.5s.89.52,1.57.52c.24,0,.47-.01.7-.04.23-.03.46-.06.7-.11l.14,1c-.34.06-.64.11-.92.12-.28.02-.53.03-.74.03Z"/>
    <path class="cls-2" d="M45.91,178.44v-1h1.77v1h-1.77ZM49.46,185.6c-.66,0-1.13-.18-1.43-.54-.29-.36-.44-.93-.44-1.72v-5.91h1.14v5.85c0,.3.03.55.09.74.06.19.17.33.34.42.17.09.41.13.74.13.3,0,.68-.07,1.14-.2l.13,1c-.29.08-.57.14-.83.17-.27.04-.55.05-.86.05Z"/>
    <path class="cls-2" d="M55.55,185.6c-.97,0-1.72-.25-2.25-.77-.53-.51-.79-1.24-.79-2.2s.22-1.65.67-2.17c.45-.52,1.08-.77,1.9-.77.77,0,1.37.23,1.79.7.42.46.63,1.14.63,2.03,0,.26-.01.5-.03.73h-4v-.87h3c0-.51-.12-.91-.37-1.18-.24-.27-.58-.41-1.01-.41-.48,0-.86.16-1.12.49-.27.33-.4.79-.4,1.4,0,.66.18,1.16.55,1.5s.89.52,1.57.52c.24,0,.47-.01.7-.04.23-.03.46-.06.7-.11l.14,1c-.34.06-.64.11-.92.12-.28.02-.53.03-.74.03Z"/>
    <path class="cls-2" d="M58.65,180.8v-1h5.16v1h-5.16ZM60.08,182.81v-4.73h1.14v4.73h-1.14ZM62.53,185.6c-.86,0-1.49-.18-1.87-.54-.38-.36-.58-.93-.58-1.72v-.97h1.14v.91c0,.45.11.78.33.98.22.2.58.31,1.09.31.18,0,.37,0,.57-.03.2-.02.43-.05.69-.08l.13,1c-.25.04-.5.08-.73.1s-.49.03-.76.03Z"/>
    <path class="cls-2" d="M68.44,185.6c-.97,0-1.72-.25-2.25-.77-.53-.51-.79-1.24-.79-2.2s.22-1.65.67-2.17c.45-.52,1.08-.77,1.9-.77.77,0,1.37.23,1.79.7.42.46.63,1.14.63,2.03,0,.26-.01.5-.03.73h-4v-.87h3c0-.51-.12-.91-.37-1.18-.24-.27-.58-.41-1.01-.41-.48,0-.86.16-1.12.49-.27.33-.4.79-.4,1.4,0,.66.18,1.16.55,1.5s.89.52,1.57.52c.24,0,.47-.01.7-.04.23-.03.46-.06.7-.11l.14,1c-.34.06-.64.11-.92.12-.28.02-.53.03-.74.03Z"/>
    <path class="cls-2" d="M78.63,185.49l-.64-5.69h1.07l.43,4.83h.1l.67-4.83h1.04l-.48,1.17h-.08l-.67,4.52h-1.45ZM81.48,185.49l-.67-4.52h-.09l-.47-1.17h1.04l.67,4.83h.1l.48-4.83h1.13l-.81,5.69h-1.4Z"/>
    <path class="cls-2" d="M84.92,185.49v-1h2.28v1h-2.28ZM85.24,180.8v-1h2.99v1h-2.99ZM87.62,178.9c-.22,0-.41-.08-.56-.23s-.23-.34-.23-.56.08-.41.23-.56c.16-.15.34-.23.56-.23s.41.08.56.23c.15.15.23.34.23.56s-.08.41-.23.56c-.15.16-.34.23-.56.23ZM87.08,185.49v-5.37h1.14v5.37h-1.14ZM88.12,185.49v-1h1.86v1h-1.86Z"/>
    <path class="cls-2" d="M90.88,180.8v-1h5.16v1h-5.16ZM92.31,182.81v-4.73h1.14v4.73h-1.14ZM94.75,185.6c-.86,0-1.49-.18-1.87-.54-.38-.36-.58-.93-.58-1.72v-.97h1.14v.91c0,.45.11.78.33.98.22.2.58.31,1.09.31.18,0,.37,0,.57-.03.2-.02.43-.05.69-.08l.13,1c-.25.04-.5.08-.73.1s-.49.03-.76.03Z"/>
    <path class="cls-2" d="M97.85,185.49v-8.06h1.14v8.06h-1.14ZM101.35,185.49v-3.71c0-.36-.09-.64-.27-.83-.18-.2-.43-.29-.75-.29-.9,0-1.34.54-1.34,1.63l-.33-1.46h.44c.03-.38.17-.67.42-.86.25-.19.61-.28,1.08-.28.6,0,1.07.18,1.4.55s.49.88.49,1.55v3.71h-1.14Z"/>
    <path class="cls-2" d="M110.21,180.8v-1h5.16v1h-5.16ZM111.64,182.81v-4.73h1.14v4.73h-1.14ZM114.09,185.6c-.86,0-1.49-.18-1.87-.54-.38-.36-.58-.93-.58-1.72v-.97h1.14v.91c0,.45.11.78.33.98.22.2.58.31,1.09.31.18,0,.37,0,.57-.03.2-.02.43-.05.69-.08l.13,1c-.25.04-.5.08-.73.1s-.49.03-.76.03Z"/>
    <path class="cls-2" d="M117.18,185.49v-8.06h1.14v8.06h-1.14ZM120.69,185.49v-3.71c0-.36-.09-.64-.27-.83-.18-.2-.43-.29-.75-.29-.9,0-1.34.54-1.34,1.63l-.33-1.46h.44c.03-.38.17-.67.42-.86.25-.19.61-.28,1.08-.28.6,0,1.07.18,1.4.55s.49.88.49,1.55v3.71h-1.14Z"/>
    <path class="cls-2" d="M126.44,185.6c-.97,0-1.72-.25-2.25-.77-.53-.51-.79-1.24-.79-2.2s.22-1.65.67-2.17c.45-.52,1.08-.77,1.9-.77.77,0,1.37.23,1.79.7.42.46.63,1.14.63,2.03,0,.26-.01.5-.03.73h-4v-.87h3c0-.51-.12-.91-.37-1.18-.24-.27-.58-.41-1.01-.41-.48,0-.86.16-1.12.49-.27.33-.4.79-.4,1.4,0,.66.18,1.16.55,1.5s.89.52,1.57.52c.24,0,.47-.01.7-.04.23-.03.46-.06.7-.11l.14,1c-.34.06-.64.11-.92.12-.28.02-.53.03-.74.03Z"/>
    <path class="cls-2" d="M136.05,185.49v-1h3.8v1h-3.8ZM136.26,180.8v-1h1.9l.11,1h-2.01ZM137.32,185.49v-5.69h.92l.21,1.63v4.06h-1.14ZM138.45,183.04l-.33-1.78h.44c.06-1.05.59-1.57,1.57-1.57.59,0,1.01.17,1.28.5.26.34.4.88.4,1.63h-1.13c0-.42-.06-.71-.19-.9-.12-.18-.32-.27-.6-.27-.48,0-.84.21-1.08.62-.24.41-.36,1-.36,1.76Z"/>
    <path class="cls-2" d="M145.78,185.6c-.97,0-1.72-.25-2.25-.77-.53-.51-.79-1.24-.79-2.2s.22-1.65.67-2.17c.45-.52,1.08-.77,1.9-.77.77,0,1.37.23,1.79.7.42.46.63,1.14.63,2.03,0,.26-.01.5-.03.73h-4v-.87h3c0-.51-.12-.91-.37-1.18-.24-.27-.58-.41-1.01-.41-.48,0-.86.16-1.12.49-.27.33-.4.79-.4,1.4,0,.66.18,1.16.55,1.5s.89.52,1.57.52c.24,0,.47-.01.7-.04.23-.03.46-.06.7-.11l.14,1c-.34.06-.64.11-.92.12-.28.02-.53.03-.74.03Z"/>
    <path class="cls-2" d="M151.3,185.6c-.74,0-1.31-.25-1.69-.74-.38-.49-.58-1.21-.58-2.16s.19-1.74.58-2.25c.38-.51.95-.76,1.69-.76.43,0,.77.1,1.04.3.27.2.42.48.47.84h.44l-.33,1.62c0-.59-.12-1.03-.35-1.34-.23-.3-.57-.46-1.02-.46s-.81.17-1.04.52-.35.85-.35,1.53c0,.64.12,1.12.35,1.44.24.33.58.49,1.04.49s.79-.15,1.02-.46c.23-.3.35-.75.35-1.34l.39,1.62h-.49c-.04.36-.19.64-.45.84-.27.2-.62.3-1.06.3ZM153.03,185.55l-.12-1.12v-6.99h1.14v8.06l-1.02.05Z"/>
    <path class="cls-2" d="M165.17,185.6c-.97,0-1.72-.25-2.25-.77-.53-.51-.79-1.24-.79-2.2s.25-1.65.75-2.17c.5-.52,1.21-.77,2.14-.77.55,0,1.03.1,1.43.31s.68.5.85.87l-.88.66c-.16-.26-.37-.46-.62-.61-.25-.14-.52-.21-.82-.21-.54,0-.95.16-1.25.49-.3.32-.45.78-.45,1.38,0,.65.17,1.14.52,1.49.35.34.85.51,1.5.51.26,0,.53-.01.79-.04.26-.02.52-.06.77-.1l.13,1c-.29.06-.6.11-.91.13s-.62.03-.92.03Z"/>
    <path class="cls-2" d="M168.7,185.49v-1h2.28v1h-2.28ZM169.03,180.8v-1h2.99v1h-2.99ZM171.41,178.9c-.22,0-.41-.08-.56-.23s-.23-.34-.23-.56.08-.41.23-.56c.16-.15.34-.23.56-.23s.41.08.56.23c.15.15.23.34.23.56s-.08.41-.23.56c-.15.16-.34.23-.56.23ZM170.87,185.49v-5.37h1.14v5.37h-1.14ZM171.91,185.49v-1h1.86v1h-1.86Z"/>
    <path class="cls-2" d="M174.72,185.49v-1h3.8v1h-3.8ZM174.93,180.8v-1h1.9l.11,1h-2.01ZM175.99,185.49v-5.69h.92l.21,1.63v4.06h-1.14ZM177.13,183.04l-.33-1.78h.44c.06-1.05.59-1.57,1.57-1.57.59,0,1.01.17,1.28.5.26.34.4.88.4,1.63h-1.13c0-.42-.06-.71-.19-.9-.12-.18-.32-.27-.6-.27-.48,0-.84.21-1.08.62-.24.41-.36,1-.36,1.76Z"/>
    <path class="cls-2" d="M184.51,185.6c-.97,0-1.72-.25-2.25-.77-.53-.51-.79-1.24-.79-2.2s.25-1.65.75-2.17c.5-.52,1.21-.77,2.14-.77.55,0,1.03.1,1.43.31s.68.5.85.87l-.88.66c-.16-.26-.37-.46-.62-.61-.25-.14-.52-.21-.82-.21-.54,0-.95.16-1.25.49-.3.32-.45.78-.45,1.38,0,.65.17,1.14.52,1.49.35.34.85.51,1.5.51.26,0,.53-.01.79-.04.26-.02.52-.06.77-.1l.13,1c-.29.06-.6.11-.91.13s-.62.03-.92.03Z"/>
    <path class="cls-2" d="M189.84,185.6c-.6,0-1.06-.18-1.39-.53-.33-.36-.49-.86-.49-1.51v-3.76h1.14v3.76c0,.33.09.58.28.75.19.18.45.27.78.27.42,0,.73-.13.94-.39.21-.26.32-.71.32-1.32l.29,1.54h-.38c-.09.39-.26.68-.53.89-.26.21-.58.31-.97.31ZM191.42,183.88v-4.08h1.14v3.76l-1.14.32ZM191.52,185.55l-.1-1.36v-1h1.14v1.28l.78.12v.91l-1.83.05Z"/>
    <path class="cls-2" d="M194.15,178.44v-1h1.77v1h-1.77ZM197.7,185.6c-.66,0-1.13-.18-1.43-.54-.29-.36-.44-.93-.44-1.72v-5.91h1.14v5.85c0,.3.03.55.09.74.06.19.17.33.34.42.17.09.41.13.74.13.3,0,.68-.07,1.14-.2l.13,1c-.29.08-.57.14-.83.17-.27.04-.55.05-.86.05Z"/>
    <path class="cls-2" d="M202.46,185.6c-.59,0-1.05-.14-1.38-.43-.33-.29-.49-.69-.49-1.21,0-.6.22-1.06.67-1.39s1.08-.48,1.9-.48c.34,0,.64.02.91.06s.5.1.71.19l-.24.77c-.24-.05-.47-.08-.7-.09-.23,0-.46-.01-.7-.01-.99,0-1.48.3-1.48.9,0,.25.08.44.25.58.17.14.41.2.72.2.35,0,.65-.06.89-.18.24-.12.42-.28.53-.47.12-.19.18-.38.18-.58v-.62l.33,1.46h-.45l.18-.17c0,.33-.08.6-.23.82-.15.22-.37.38-.64.49s-.6.16-.98.16ZM204.46,185.55l-.08-1.69-.15-.47v-1.47c0-.38-.13-.66-.4-.83-.27-.18-.66-.27-1.19-.29l-1.36-.04.11-1.01,1.15.02c.94.01,1.64.22,2.1.61.46.39.68.96.68,1.72v2.37l.97.12v.91l-1.83.05Z"/>
    <path class="cls-2" d="M206.95,185.49v-1h3.8v1h-3.8ZM207.16,180.8v-1h1.9l.11,1h-2.01ZM208.21,185.49v-5.69h.92l.21,1.63v4.06h-1.14ZM209.35,183.04l-.33-1.78h.44c.06-1.05.59-1.57,1.57-1.57.59,0,1.01.17,1.28.5.26.34.4.88.4,1.63h-1.13c0-.42-.06-.71-.19-.9-.12-.18-.32-.27-.6-.27-.48,0-.84.21-1.08.62-.24.41-.36,1-.36,1.76Z"/>
    <path class="cls-2" d="M33.37,198.69v-8.06h1.14v7.96l-1.14.1ZM34.89,198.8c-.26,0-.51,0-.76-.03-.25-.02-.51-.05-.76-.08l.44-1.04c.19.09.4.14.63.16.23.02.46.02.68.02.68,0,1.21-.21,1.59-.62.37-.41.56-.99.56-1.75,0-.52-.11-.91-.34-1.19s-.55-.42-.97-.42c-.97,0-1.45.54-1.45,1.63l-.33-1.46h.44c.05-.76.52-1.14,1.4-1.14.76,0,1.35.22,1.76.67.42.45.62,1.08.62,1.91,0,1.06-.3,1.88-.92,2.46s-1.47.87-2.59.87Z"/>
    <path class="cls-2" d="M41.6,198.8c-.6,0-1.06-.18-1.39-.53-.33-.36-.49-.86-.49-1.51v-3.76h1.14v3.76c0,.33.09.58.28.75.19.18.45.27.78.27.42,0,.73-.13.94-.39.21-.26.32-.71.32-1.32l.29,1.54h-.38c-.09.39-.26.68-.53.89s-.58.31-.97.31ZM43.18,197.08v-4.08h1.14v3.76l-1.14.32ZM43.28,198.75l-.1-1.36v-1h1.14v1.28l.78.12v.91l-1.83.05Z"/>
    <path class="cls-2" d="M45.76,194v-1h5.16v1h-5.16ZM47.19,196.01v-4.73h1.14v4.73h-1.14ZM49.64,198.8c-.86,0-1.49-.18-1.87-.54s-.58-.93-.58-1.72v-.97h1.14v.91c0,.45.11.78.33.98.22.2.58.31,1.09.31.18,0,.37,0,.57-.03s.43-.05.69-.08l.13,1c-.25.04-.5.08-.73.1s-.49.03-.76.03Z"/>
    <path class="cls-2" d="M52.21,194v-1h5.16v1h-5.16ZM53.63,196.01v-4.73h1.14v4.73h-1.14ZM56.08,198.8c-.86,0-1.49-.18-1.87-.54s-.58-.93-.58-1.72v-.97h1.14v.91c0,.45.11.78.33.98.22.2.58.31,1.09.31.18,0,.37,0,.57-.03s.43-.05.69-.08l.13,1c-.25.04-.5.08-.73.1s-.49.03-.76.03Z"/>
    <path class="cls-2" d="M61.5,198.8c-.79,0-1.4-.26-1.84-.77s-.66-1.24-.66-2.18.22-1.67.66-2.18c.44-.51,1.05-.77,1.84-.77s1.4.26,1.84.77c.43.51.65,1.24.65,2.18s-.22,1.67-.65,2.18c-.44.52-1.05.77-1.84.77ZM61.5,197.78c.42,0,.74-.17.97-.5s.34-.81.34-1.43-.11-1.1-.34-1.43c-.23-.33-.55-.5-.97-.5s-.74.17-.97.5c-.23.33-.34.81-.34,1.43s.11,1.09.34,1.43.55.5.97.5Z"/>
    <path class="cls-2" d="M65.62,198.69v-5.69h1.03l.11,1.2v4.49h-1.14ZM69.12,198.69v-3.71c0-.34-.09-.61-.27-.79-.18-.19-.43-.28-.75-.28-.9,0-1.34.53-1.34,1.58l-.33-1.46h.44c.03-.38.17-.67.42-.86.25-.19.61-.28,1.08-.28.6,0,1.07.18,1.4.55s.49.88.49,1.55v3.71h-1.14Z"/>
    <path class="cls-2" d="M80,198.8c-.59,0-1.05-.14-1.38-.43-.33-.29-.49-.69-.49-1.21,0-.6.22-1.06.67-1.39s1.08-.48,1.9-.48c.34,0,.64.02.91.06s.5.1.71.19l-.24.77c-.24-.05-.47-.08-.7-.09-.23,0-.46-.01-.7-.01-.99,0-1.48.3-1.48.9,0,.25.08.44.25.58s.41.2.72.2c.35,0,.65-.06.89-.18s.42-.28.53-.47c.12-.19.18-.39.18-.59v-.62l.33,1.46h-.45l.18-.17c0,.33-.08.6-.23.82-.15.22-.37.38-.64.49s-.6.16-.98.16ZM82,198.75l-.08-1.69-.15-.47v-1.47c0-.38-.13-.66-.4-.83-.27-.18-.66-.27-1.19-.29l-1.36-.04.11-1.01,1.15.02c.94.01,1.64.22,2.1.61.46.39.68.96.68,1.72v2.37l.97.12v.91l-1.83.05Z"/>
    <path class="cls-2" d="M84.96,198.69v-5.69h1.03l.11,1.2v4.49h-1.14ZM88.46,198.69v-3.71c0-.34-.09-.61-.27-.79-.18-.19-.43-.28-.75-.28-.9,0-1.34.53-1.34,1.58l-.33-1.46h.44c.03-.38.17-.67.42-.86.25-.19.61-.28,1.08-.28.6,0,1.07.18,1.4.55s.49.88.49,1.55v3.71h-1.14Z"/>
    <path class="cls-2" d="M93.29,198.8c-.74,0-1.31-.25-1.69-.74-.38-.49-.58-1.21-.58-2.16s.19-1.74.58-2.25c.38-.51.95-.76,1.69-.76.43,0,.77.1,1.04.3.27.2.42.48.47.84h.44l-.33,1.62c0-.59-.12-1.03-.35-1.34-.23-.3-.57-.46-1.02-.46s-.81.17-1.04.52-.35.85-.35,1.53c0,.64.12,1.12.35,1.45.24.33.58.49,1.04.49s.79-.15,1.02-.46c.23-.3.35-.75.35-1.34l.39,1.62h-.49c-.04.36-.19.64-.45.84s-.62.3-1.06.3ZM95.02,198.75l-.12-1.12v-6.99h1.14v8.06l-1.02.05Z"/>
    <path class="cls-2" d="M104.29,198.69v-8.06h1.14v8.06h-1.14ZM107.8,198.69v-3.71c0-.36-.09-.64-.27-.83s-.43-.29-.75-.29c-.9,0-1.34.54-1.34,1.63l-.33-1.46h.44c.03-.38.17-.67.42-.86.25-.19.61-.28,1.08-.28.6,0,1.07.18,1.4.55s.49.88.49,1.55v3.71h-1.14Z"/>
    <path class="cls-2" d="M112.22,198.8c-.59,0-1.05-.14-1.38-.43-.33-.29-.49-.69-.49-1.21,0-.6.22-1.06.67-1.39s1.08-.48,1.9-.48c.34,0,.64.02.91.06s.5.1.71.19l-.24.77c-.24-.05-.47-.08-.7-.09-.23,0-.46-.01-.7-.01-.99,0-1.48.3-1.48.9,0,.25.08.44.25.58s.41.2.72.2c.35,0,.65-.06.89-.18s.42-.28.53-.47c.12-.19.18-.39.18-.59v-.62l.33,1.46h-.45l.18-.17c0,.33-.08.6-.23.82-.15.22-.37.38-.64.49s-.6.16-.98.16ZM114.23,198.75l-.08-1.69-.15-.47v-1.47c0-.38-.13-.66-.4-.83-.27-.18-.66-.27-1.19-.29l-1.36-.04.11-1.01,1.15.02c.94.01,1.64.22,2.1.61.46.39.68.96.68,1.72v2.37l.97.12v.91l-1.83.05Z"/>
    <path class="cls-2" d="M118.75,198.69l-2.04-5.69h1.21l1.53,4.73h.1l1.53-4.73h1.21l-2.04,5.69h-1.52Z"/>
    <path class="cls-2" d="M126.44,198.8c-.97,0-1.72-.25-2.25-.77-.53-.51-.79-1.24-.79-2.2s.22-1.65.67-2.17c.45-.52,1.08-.77,1.9-.77.77,0,1.37.23,1.79.7.42.47.63,1.14.63,2.03,0,.26-.01.5-.03.73h-4v-.87h3c0-.51-.12-.91-.37-1.18-.24-.27-.58-.41-1.01-.41-.48,0-.86.17-1.12.49s-.4.79-.4,1.4c0,.66.18,1.16.55,1.5s.89.52,1.57.52c.24,0,.47-.01.7-.04.23-.03.46-.06.7-.11l.14,1c-.34.06-.64.11-.92.12-.28.02-.53.03-.74.03Z"/>
    <path class="cls-2" d="M135.98,195.26v-1h5.26v1h-5.26ZM137.78,198.69v-5.21c0-1.97.9-2.95,2.7-2.95.41,0,.8.04,1.18.11l-.12.99c-.23-.03-.42-.05-.6-.06s-.34-.02-.5-.02c-1.02,0-1.53.63-1.53,1.88v5.26h-1.14Z"/>
    <path class="cls-2" d="M144.73,198.8c-.6,0-1.06-.18-1.39-.53-.33-.36-.49-.86-.49-1.51v-3.76h1.14v3.76c0,.33.09.58.28.75.19.18.45.27.78.27.42,0,.73-.13.94-.39.21-.26.32-.71.32-1.32l.29,1.54h-.38c-.09.39-.26.68-.53.89s-.58.31-.97.31ZM146.31,197.08v-4.08h1.14v3.76l-1.14.32ZM146.4,198.75l-.1-1.36v-1h1.14v1.28l.78.12v.91l-1.83.05Z"/>
    <path class="cls-2" d="M149.41,198.69v-5.69h1.03l.11,1.2v4.49h-1.14ZM152.91,198.69v-3.71c0-.34-.09-.61-.27-.79-.18-.19-.43-.28-.75-.28-.9,0-1.34.53-1.34,1.58l-.33-1.46h.44c.03-.38.17-.67.42-.86.25-.19.61-.28,1.08-.28.6,0,1.07.18,1.4.55s.49.88.49,1.55v3.71h-1.14Z"/>
    <path class="cls-2" d="M164.19,198.8c-.74,0-1.31-.25-1.69-.74-.38-.49-.58-1.21-.58-2.16s.19-1.74.58-2.25c.38-.51.95-.76,1.69-.76.43,0,.77.1,1.04.3.27.2.42.48.47.84h.44l-.33,1.62c0-.59-.12-1.03-.35-1.34-.23-.3-.57-.46-1.02-.46s-.81.17-1.04.52-.35.85-.35,1.53c0,.64.12,1.12.35,1.45.24.33.58.49,1.04.49s.79-.15,1.02-.46c.23-.3.35-.75.35-1.34l.39,1.62h-.49c-.04.36-.19.64-.45.84s-.62.3-1.06.3ZM165.92,198.75l-.12-1.12v-6.99h1.14v8.06l-1.02.05Z"/>
    <path class="cls-2" d="M171.56,198.8c-.97,0-1.72-.25-2.25-.77-.53-.51-.79-1.24-.79-2.2s.22-1.65.67-2.17c.45-.52,1.08-.77,1.9-.77.77,0,1.37.23,1.79.7.42.47.63,1.14.63,2.03,0,.26-.01.5-.03.73h-4v-.87h3c0-.51-.12-.91-.37-1.18-.24-.27-.58-.41-1.01-.41-.48,0-.86.17-1.12.49s-.4.79-.4,1.4c0,.66.18,1.16.55,1.5s.89.52,1.57.52c.24,0,.47-.01.7-.04.23-.03.46-.06.7-.11l.14,1c-.34.06-.64.11-.92.12-.28.02-.53.03-.74.03Z"/>
    <path class="cls-2" d="M178.06,198.8c-.97,0-1.72-.25-2.25-.77-.53-.51-.79-1.24-.79-2.2s.25-1.65.75-2.17c.5-.52,1.21-.77,2.14-.77.55,0,1.03.1,1.43.31.4.21.68.5.85.87l-.88.66c-.16-.26-.37-.46-.62-.61-.25-.14-.52-.21-.82-.21-.54,0-.95.16-1.25.49-.3.32-.45.78-.45,1.38,0,.65.17,1.14.52,1.49.35.34.85.51,1.5.51.26,0,.53-.01.79-.04.26-.02.52-.06.77-.1l.13,1c-.29.06-.6.11-.91.13s-.62.03-.92.03Z"/>
    <path class="cls-2" d="M183.96,198.8c-.79,0-1.4-.26-1.84-.77s-.66-1.24-.66-2.18.22-1.67.66-2.18c.44-.51,1.05-.77,1.84-.77s1.4.26,1.84.77c.43.51.65,1.24.65,2.18s-.22,1.67-.65,2.18c-.44.52-1.05.77-1.84.77ZM183.96,197.78c.42,0,.74-.17.97-.5s.34-.81.34-1.43-.11-1.1-.34-1.43c-.23-.33-.55-.5-.97-.5s-.74.17-.97.5c-.23.33-.34.81-.34,1.43s.11,1.09.34,1.43.55.5.97.5Z"/>
    <path class="cls-2" d="M187.61,198.69v-1h3.8v1h-3.8ZM187.83,194v-1h1.9l.11,1h-2.01ZM188.88,198.69v-5.69h.92l.21,1.63v4.06h-1.14ZM190.02,196.24l-.33-1.78h.44c.06-1.04.59-1.57,1.57-1.57.59,0,1.01.17,1.28.5.26.34.4.88.4,1.63h-1.13c0-.42-.06-.71-.19-.9-.12-.18-.32-.27-.6-.27-.48,0-.84.21-1.08.62-.24.41-.36,1-.36,1.76Z"/>
    <path class="cls-2" d="M196.01,198.8c-.59,0-1.05-.14-1.38-.43-.33-.29-.49-.69-.49-1.21,0-.6.22-1.06.67-1.39s1.08-.48,1.9-.48c.34,0,.64.02.91.06s.5.1.71.19l-.24.77c-.24-.05-.47-.08-.7-.09-.23,0-.46-.01-.7-.01-.99,0-1.48.3-1.48.9,0,.25.08.44.25.58s.41.2.72.2c.35,0,.65-.06.89-.18s.42-.28.53-.47c.12-.19.18-.39.18-.59v-.62l.33,1.46h-.45l.18-.17c0,.33-.08.6-.23.82-.15.22-.37.38-.64.49s-.6.16-.98.16ZM198.02,198.75l-.08-1.69-.15-.47v-1.47c0-.38-.13-.66-.4-.83-.27-.18-.66-.27-1.19-.29l-1.36-.04.11-1.01,1.15.02c.94.01,1.64.22,2.1.61.46.39.68.96.68,1.72v2.37l.97.12v.91l-1.83.05Z"/>
    <path class="cls-2" d="M200.45,194v-1h5.16v1h-5.16ZM201.88,196.01v-4.73h1.14v4.73h-1.14ZM204.33,198.8c-.86,0-1.49-.18-1.87-.54s-.58-.93-.58-1.72v-.97h1.14v.91c0,.45.11.78.33.98.22.2.58.31,1.09.31.18,0,.37,0,.57-.03s.43-.05.69-.08l.13,1c-.25.04-.5.08-.73.1s-.49.03-.76.03Z"/>
    <path class="cls-2" d="M207.38,198.69v-1h2.28v1h-2.28ZM207.7,194v-1h2.99v1h-2.99ZM210.08,192.1c-.22,0-.41-.08-.56-.23s-.23-.34-.23-.56.08-.41.23-.56c.16-.15.34-.23.56-.23s.41.08.56.23c.15.15.23.34.23.56s-.08.41-.23.56c-.15.16-.34.23-.56.23ZM209.55,198.69v-5.37h1.14v5.37h-1.14ZM210.58,198.69v-1h1.86v1h-1.86Z"/>
    <path class="cls-2" d="M213.86,198.69v-5.69h1.03l.11,1.2v4.49h-1.14ZM217.37,198.69v-3.71c0-.34-.09-.61-.27-.79-.18-.19-.43-.28-.75-.28-.9,0-1.34.53-1.34,1.58l-.33-1.46h.44c.03-.38.17-.67.42-.86.25-.19.61-.28,1.08-.28.6,0,1.07.18,1.4.55s.49.88.49,1.55v3.71h-1.14Z"/>
    <path class="cls-2" d="M222.19,198.8c-.74,0-1.31-.25-1.69-.74-.38-.49-.58-1.21-.58-2.16s.19-1.74.58-2.25c.38-.51.95-.76,1.69-.76.44,0,.8.1,1.08.3.28.2.44.48.48.84h.44l-.39,1.62c0-.59-.12-1.03-.35-1.34-.23-.3-.57-.46-1.02-.46s-.81.17-1.04.52-.35.85-.35,1.53c0,.64.12,1.12.35,1.45.24.33.58.49,1.04.49s.79-.15,1.02-.46c.23-.3.35-.75.35-1.34l.39,1.62h-.49c-.04.36-.19.64-.45.84s-.62.3-1.06.3ZM220.38,201.26l-.05-1.04,1.83-.05c.58-.02,1-.18,1.26-.48s.39-.74.4-1.33v-4.16l.11-1.2h1.03v5.19c0,1.01-.23,1.76-.69,2.25-.46.48-1.2.74-2.21.77l-1.67.05Z"/>
    <path class="cls-2" d="M35.06,211.89l-2.27-5.69h1.18l1.86,4.83h.17v.86h-.95ZM32.9,214.47l-.05-1.02.89-.11c.38-.05.7-.15.96-.31.27-.16.5-.39.68-.7s.36-.72.5-1.22l1.42-4.92h1.18l-1.64,5.19c-.21.68-.46,1.23-.72,1.64s-.58.73-.95.93-.8.34-1.31.4l-.97.11Z"/>
    <path class="cls-2" d="M42.16,212c-.79,0-1.4-.26-1.84-.77s-.66-1.24-.66-2.18.22-1.67.66-2.18,1.05-.77,1.84-.77,1.4.26,1.84.77c.43.51.65,1.24.65,2.18s-.22,1.67-.65,2.18c-.44.52-1.05.77-1.84.77ZM42.16,210.98c.42,0,.74-.17.97-.5s.34-.81.34-1.43-.11-1.1-.34-1.43-.55-.5-.97-.5-.74.17-.97.5-.34.81-.34,1.43.11,1.09.34,1.43.55.5.97.5Z"/>
    <path class="cls-2" d="M48.05,212c-.6,0-1.06-.18-1.39-.53-.33-.36-.49-.86-.49-1.51v-3.76h1.14v3.76c0,.33.09.58.28.75.19.18.45.27.78.27.42,0,.73-.13.94-.39.21-.26.32-.71.32-1.32l.29,1.54h-.38c-.09.39-.26.68-.53.89s-.58.31-.97.31ZM49.63,210.28v-4.08h1.14v3.76l-1.14.32ZM49.72,211.95l-.1-1.36v-1h1.14v1.28l.78.12v.91l-1.83.05Z"/>
    <path class="cls-2" d="M52.26,211.89v-1h3.8v1h-3.8ZM52.47,207.2v-1h1.9l.11,1h-2.01ZM53.53,211.89v-5.69h.92l.21,1.63v4.06h-1.14ZM54.67,209.44l-.33-1.78h.44c.06-1.05.59-1.57,1.57-1.57.59,0,1.01.17,1.28.5s.4.88.4,1.63h-1.13c0-.42-.06-.71-.19-.9-.12-.18-.32-.27-.6-.27-.48,0-.84.21-1.08.62-.24.41-.36,1-.36,1.76Z"/>
    <path class="cls-2" d="M65.62,214.36v-8.16h1.03l.11,1.2v6.96h-1.14ZM68.38,212c-.44,0-.79-.1-1.06-.3s-.42-.48-.45-.84h-.49l.39-1.62c0,.59.12,1.03.35,1.34.23.3.57.46,1.02.46s.81-.16,1.04-.49c.24-.33.35-.81.35-1.45,0-.67-.12-1.18-.35-1.53s-.58-.52-1.04-.52-.79.15-1.02.46c-.23.3-.35.75-.35,1.34l-.39-1.62h.44c.05-.36.21-.64.49-.84.27-.2.63-.3,1.08-.3.75,0,1.31.25,1.7.76.38.51.57,1.26.57,2.25s-.19,1.67-.57,2.16c-.38.49-.95.74-1.7.74Z"/>
    <path class="cls-2" d="M72.07,211.89v-8.06h1.14v8.06h-1.14ZM75.57,211.89v-3.71c0-.36-.09-.64-.27-.83s-.43-.29-.75-.29c-.9,0-1.34.54-1.34,1.63l-.33-1.46h.44c.03-.38.17-.67.42-.86.25-.19.61-.28,1.08-.28.6,0,1.07.18,1.4.55s.49.88.49,1.55v3.71h-1.14Z"/>
    <path class="cls-2" d="M80.83,212c-.79,0-1.4-.26-1.84-.77s-.66-1.24-.66-2.18.22-1.67.66-2.18,1.05-.77,1.84-.77,1.4.26,1.84.77c.43.51.65,1.24.65,2.18s-.22,1.67-.65,2.18c-.44.52-1.05.77-1.84.77ZM80.83,210.98c.42,0,.74-.17.97-.5s.34-.81.34-1.43-.11-1.1-.34-1.43-.55-.5-.97-.5-.74.17-.97.5-.34.81-.34,1.43.11,1.09.34,1.43.55.5.97.5Z"/>
    <path class="cls-2" d="M84.43,207.2v-1h5.16v1h-5.16ZM85.86,209.21v-4.73h1.14v4.73h-1.14ZM88.31,212c-.86,0-1.49-.18-1.87-.54s-.58-.93-.58-1.72v-.97h1.14v.91c0,.45.11.78.33.98.22.2.58.31,1.09.31.18,0,.37,0,.57-.03s.43-.05.69-.08l.13,1c-.25.04-.5.08-.73.1s-.49.03-.76.03Z"/>
    <path class="cls-2" d="M93.72,212c-.79,0-1.4-.26-1.84-.77s-.66-1.24-.66-2.18.22-1.67.66-2.18,1.05-.77,1.84-.77,1.4.26,1.84.77c.43.51.65,1.24.65,2.18s-.22,1.67-.65,2.18c-.44.52-1.05.77-1.84.77ZM93.72,210.98c.42,0,.74-.17.97-.5s.34-.81.34-1.43-.11-1.1-.34-1.43-.55-.5-.97-.5-.74.17-.97.5-.34.81-.34,1.43.11,1.09.34,1.43.55.5.97.5Z"/>
    <path class="cls-2" d="M100.17,212c-.22,0-.41-.08-.56-.23-.16-.16-.23-.34-.23-.56s.08-.41.23-.56c.16-.15.34-.23.56-.23s.41.08.56.23c.15.15.23.34.23.56s-.08.41-.23.56c-.15.16-.34.23-.56.23ZM99.7,209.44l-.09-5.23h1.12l-.11,5.23h-.92Z"/>
  </g>
  <text class="cls-4" transform="translate(25.93 21.7)"><tspan x="0" y="0">INSTRUCTIONS</tspan></text>
</svg>